<?xml version="1.0" encoding="utf-8"?><svg width="auto" height="5870" style="overflow:visible " version="1.1" xmlns="http://www.w3.org/2000/svg"><rect x="20" y="20" width="200" height="40" style="fill:white;stroke:black;stroke-width:1" /><text x="30" y="30" font-size="10" style="fill:blue">circuitos</text><rect x="240" y="20" width="200" height="40" style="fill:white;stroke:black;stroke-width:1" /><text x="250" y="30" font-size="10" style="fill:blue">circuito</text><path d="M220 40 C240 40 220 40 240 40" style="fill:transparent;stroke:black" /><text x="250" y="40" font-size="8" style="fill:black">nombre: Las Vegas Strip Circuit</text><rect x="460" y="20" width="200" height="40" style="fill:white;stroke:black;stroke-width:1" /><text x="470" y="30" font-size="10" style="fill:blue">fecha</text><path d="M440 40 C460 40 440 40 460 40" style="fill:transparent;stroke:black" /><rect x="526" y="20" width="137" height="40" style="fill:green;stroke:black;stroke-width:1" /><text x="536" y="30" font-size="8" style="fill:white">23 de noviembre</text><rect x="460" y="70" width="200" height="40" style="fill:white;stroke:black;stroke-width:1" /><text x="470" y="80" font-size="10" style="fill:blue">longitud</text><path d="M440 40 C460 40 440 90 460 90" style="fill:transparent;stroke:black" /><text x="470" y="90" font-size="8" style="fill:black">unidad: metros</text><rect x="526" y="70" width="137" height="40" style="fill:green;stroke:black;stroke-width:1" /><text x="536" y="80" font-size="8" style="fill:white">6201</text><rect x="460" y="120" width="200" height="40" style="fill:white;stroke:black;stroke-width:1" /><text x="470" y="130" font-size="10" style="fill:blue">anchura</text><path d="M440 40 C460 40 440 140 460 140" style="fill:transparent;stroke:black" /><text x="470" y="140" font-size="8" style="fill:black">unidad: metros</text><rect x="526" y="120" width="137" height="40" style="fill:green;stroke:black;stroke-width:1" /><text x="536" y="130" font-size="8" style="fill:white">10</text><rect x="460" y="170" width="200" height="40" style="fill:white;stroke:black;stroke-width:1" /><text x="470" y="180" font-size="10" style="fill:blue">vueltas</text><path d="M440 40 C460 40 440 190 460 190" style="fill:transparent;stroke:black" /><rect x="526" y="170" width="137" height="40" style="fill:green;stroke:black;stroke-width:1" /><text x="536" y="180" font-size="8" style="fill:white">50</text><rect x="460" y="220" width="200" height="40" style="fill:white;stroke:black;stroke-width:1" /><text x="470" y="230" font-size="10" style="fill:blue">localidad</text><path d="M440 40 C460 40 440 240 460 240" style="fill:transparent;stroke:black" /><rect x="526" y="220" width="137" height="40" style="fill:green;stroke:black;stroke-width:1" /><text x="536" y="230" font-size="8" style="fill:white">Las Vegas</text><rect x="460" y="270" width="200" height="40" style="fill:white;stroke:black;stroke-width:1" /><text x="470" y="280" font-size="10" style="fill:blue">pais</text><path d="M440 40 C460 40 440 290 460 290" style="fill:transparent;stroke:black" /><rect x="526" y="270" width="137" height="40" style="fill:green;stroke:black;stroke-width:1" /><text x="536" y="280" font-size="8" style="fill:white">Estados Unidos</text><rect x="460" y="320" width="200" height="40" style="fill:white;stroke:black;stroke-width:1" /><text x="470" y="330" font-size="10" style="fill:blue">bibliografia</text><path d="M440 40 C460 40 440 340 460 340" style="fill:transparent;stroke:black" /><rect x="680" y="320" width="200" height="40" style="fill:white;stroke:black;stroke-width:1" /><text x="690" y="330" font-size="10" style="fill:blue">url</text><path d="M660 340 C680 340 660 340 680 340" style="fill:transparent;stroke:black" /><rect x="746" y="320" width="137" height="40" style="fill:green;stroke:black;stroke-width:1" /><text x="756" y="330" font-size="8" style="fill:white">https://www.formula1.com/en/racing/2024/las-vegas/circuit</text><rect x="680" y="370" width="200" height="40" style="fill:white;stroke:black;stroke-width:1" /><text x="690" y="380" font-size="10" style="fill:blue">url</text><path d="M660 340 C680 340 660 390 680 390" style="fill:transparent;stroke:black" /><rect x="746" y="370" width="137" height="40" style="fill:green;stroke:black;stroke-width:1" /><text x="756" y="380" font-size="8" style="fill:white">https://www.mclaren.com/racing/formula-1/2024/las-vegas-grand-prix/</text><rect x="680" y="420" width="200" height="40" style="fill:white;stroke:black;stroke-width:1" /><text x="690" y="430" font-size="10" style="fill:blue">url</text><path d="M660 340 C680 340 660 440 680 440" style="fill:transparent;stroke:black" /><rect x="746" y="420" width="137" height="40" style="fill:green;stroke:black;stroke-width:1" /><text x="756" y="430" font-size="8" style="fill:white">https://www.redbull.com/es-es/circuito-las-vegas-f1-guia</text><rect x="460" y="520" width="200" height="40" style="fill:white;stroke:black;stroke-width:1" /><text x="470" y="530" font-size="10" style="fill:blue">multimedia</text><path d="M440 40 C460 40 440 540 460 540" style="fill:transparent;stroke:black" /><rect x="680" y="520" width="200" height="40" style="fill:white;stroke:black;stroke-width:1" /><text x="690" y="530" font-size="10" style="fill:blue">imagenes</text><path d="M660 540 C680 540 660 540 680 540" style="fill:transparent;stroke:black" /><rect x="900" y="520" width="200" height="40" style="fill:white;stroke:black;stroke-width:1" /><text x="910" y="530" font-size="10" style="fill:blue">imagen</text><path d="M880 540 C900 540 880 540 900 540" style="fill:transparent;stroke:black" /><rect x="966" y="520" width="137" height="40" style="fill:green;stroke:black;stroke-width:1" /><text x="976" y="530" font-size="8" style="fill:white">LayoutTrack.jpg</text><rect x="900" y="570" width="200" height="40" style="fill:white;stroke:black;stroke-width:1" /><text x="910" y="580" font-size="10" style="fill:blue">imagen</text><path d="M880 540 C900 540 880 590 900 590" style="fill:transparent;stroke:black" /><rect x="966" y="570" width="137" height="40" style="fill:green;stroke:black;stroke-width:1" /><text x="976" y="580" font-size="8" style="fill:white">Panoramica.jpg</text><rect x="900" y="620" width="200" height="40" style="fill:white;stroke:black;stroke-width:1" /><text x="910" y="630" font-size="10" style="fill:blue">imagen</text><path d="M880 540 C900 540 880 640 900 640" style="fill:transparent;stroke:black" /><rect x="966" y="620" width="137" height="40" style="fill:green;stroke:black;stroke-width:1" /><text x="976" y="630" font-size="8" style="fill:white">Salida.jpg</text><rect x="680" y="720" width="200" height="40" style="fill:white;stroke:black;stroke-width:1" /><text x="690" y="730" font-size="10" style="fill:blue">videos</text><path d="M660 540 C680 540 660 740 680 740" style="fill:transparent;stroke:black" /><rect x="900" y="720" width="200" height="40" style="fill:white;stroke:black;stroke-width:1" /><text x="910" y="730" font-size="10" style="fill:blue">video</text><path d="M880 740 C900 740 880 740 900 740" style="fill:transparent;stroke:black" /><rect x="966" y="720" width="137" height="40" style="fill:green;stroke:black;stroke-width:1" /><text x="976" y="730" font-size="8" style="fill:white">RaceHighLight.mp4</text><rect x="460" y="870" width="200" height="40" style="fill:white;stroke:black;stroke-width:1" /><text x="470" y="880" font-size="10" style="fill:blue">coordenadas</text><path d="M440 40 C460 40 440 890 460 890" style="fill:transparent;stroke:black" /><rect x="680" y="870" width="200" height="40" style="fill:white;stroke:black;stroke-width:1" /><text x="690" y="880" font-size="10" style="fill:blue">centro</text><path d="M660 890 C680 890 660 890 680 890" style="fill:transparent;stroke:black" /><text x="690" y="890" font-size="8" style="fill:black">longitud: -115.176468º</text><text x="690" y="900" font-size="8" style="fill:black">latitud: 36.188110°</text><rect x="900" y="870" width="200" height="40" style="fill:white;stroke:black;stroke-width:1" /><text x="910" y="880" font-size="10" style="fill:blue">altitud</text><path d="M880 890 C900 890 880 890 900 890" style="fill:transparent;stroke:black" /><text x="910" y="890" font-size="8" style="fill:black">unidad: metros</text><rect x="966" y="870" width="137" height="40" style="fill:green;stroke:black;stroke-width:1" /><text x="976" y="880" font-size="8" style="fill:white">611</text><rect x="680" y="970" width="200" height="40" style="fill:white;stroke:black;stroke-width:1" /><text x="690" y="980" font-size="10" style="fill:blue">puntos</text><path d="M660 890 C680 890 660 990 680 990" style="fill:transparent;stroke:black" /><rect x="900" y="970" width="200" height="40" style="fill:white;stroke:black;stroke-width:1" /><text x="910" y="980" font-size="10" style="fill:blue">longitudTramo</text><path d="M880 990 C900 990 880 990 900 990" style="fill:transparent;stroke:black" /><text x="910" y="990" font-size="8" style="fill:black">unidad: metros</text><rect x="966" y="970" width="137" height="40" style="fill:green;stroke:black;stroke-width:1" /><text x="976" y="980" font-size="8" style="fill:white">236</text><rect x="900" y="1020" width="200" height="40" style="fill:white;stroke:black;stroke-width:1" /><text x="910" y="1030" font-size="10" style="fill:blue">puntoFinal</text><path d="M880 990 C900 990 880 1040 900 1040" style="fill:transparent;stroke:black" /><text x="910" y="1040" font-size="8" style="fill:black">longitud: -115.162219º</text><text x="910" y="1050" font-size="8" style="fill:black">latitud: 36.109017°</text><rect x="1120" y="1020" width="200" height="40" style="fill:white;stroke:black;stroke-width:1" /><text x="1130" y="1030" font-size="10" style="fill:blue">altitudPunto</text><path d="M1100 1040 C1120 1040 1100 1040 1120 1040" style="fill:transparent;stroke:black" /><text x="1130" y="1040" font-size="8" style="fill:black">unidad: metros</text><rect x="1186" y="1020" width="137" height="40" style="fill:green;stroke:black;stroke-width:1" /><text x="1196" y="1030" font-size="8" style="fill:white">611</text><rect x="900" y="1120" width="200" height="40" style="fill:white;stroke:black;stroke-width:1" /><text x="910" y="1130" font-size="10" style="fill:blue">numero</text><path d="M880 990 C900 990 880 1140 900 1140" style="fill:transparent;stroke:black" /><rect x="966" y="1120" width="137" height="40" style="fill:green;stroke:black;stroke-width:1" /><text x="976" y="1130" font-size="8" style="fill:white">1</text><rect x="680" y="1220" width="200" height="40" style="fill:white;stroke:black;stroke-width:1" /><text x="690" y="1230" font-size="10" style="fill:blue">puntos</text><path d="M660 890 C680 890 660 1240 680 1240" style="fill:transparent;stroke:black" /><rect x="900" y="1220" width="200" height="40" style="fill:white;stroke:black;stroke-width:1" /><text x="910" y="1230" font-size="10" style="fill:blue">longitudTramo</text><path d="M880 1240 C900 1240 880 1240 900 1240" style="fill:transparent;stroke:black" /><text x="910" y="1240" font-size="8" style="fill:black">unidad: metros</text><rect x="966" y="1220" width="137" height="40" style="fill:green;stroke:black;stroke-width:1" /><text x="976" y="1230" font-size="8" style="fill:white">25</text><rect x="900" y="1270" width="200" height="40" style="fill:white;stroke:black;stroke-width:1" /><text x="910" y="1280" font-size="10" style="fill:blue">puntoFinal</text><path d="M880 1240 C900 1240 880 1290 900 1290" style="fill:transparent;stroke:black" /><text x="910" y="1290" font-size="8" style="fill:black">longitud: -115.160217º</text><text x="910" y="1300" font-size="8" style="fill:black">latitud: 36.110399°</text><rect x="1120" y="1270" width="200" height="40" style="fill:white;stroke:black;stroke-width:1" /><text x="1130" y="1280" font-size="10" style="fill:blue">altitudPunto</text><path d="M1100 1290 C1120 1290 1100 1290 1120 1290" style="fill:transparent;stroke:black" /><text x="1130" y="1290" font-size="8" style="fill:black">unidad: metros</text><rect x="1186" y="1270" width="137" height="40" style="fill:green;stroke:black;stroke-width:1" /><text x="1196" y="1280" font-size="8" style="fill:white">611</text><rect x="900" y="1370" width="200" height="40" style="fill:white;stroke:black;stroke-width:1" /><text x="910" y="1380" font-size="10" style="fill:blue">numero</text><path d="M880 1240 C900 1240 880 1390 900 1390" style="fill:transparent;stroke:black" /><rect x="966" y="1370" width="137" height="40" style="fill:green;stroke:black;stroke-width:1" /><text x="976" y="1380" font-size="8" style="fill:white">2</text><rect x="680" y="1470" width="200" height="40" style="fill:white;stroke:black;stroke-width:1" /><text x="690" y="1480" font-size="10" style="fill:blue">puntos</text><path d="M660 890 C680 890 660 1490 680 1490" style="fill:transparent;stroke:black" /><rect x="900" y="1470" width="200" height="40" style="fill:white;stroke:black;stroke-width:1" /><text x="910" y="1480" font-size="10" style="fill:blue">longitudTramo</text><path d="M880 1490 C900 1490 880 1490 900 1490" style="fill:transparent;stroke:black" /><text x="910" y="1490" font-size="8" style="fill:black">unidad: metros</text><rect x="966" y="1470" width="137" height="40" style="fill:green;stroke:black;stroke-width:1" /><text x="976" y="1480" font-size="8" style="fill:white">92</text><rect x="900" y="1520" width="200" height="40" style="fill:white;stroke:black;stroke-width:1" /><text x="910" y="1530" font-size="10" style="fill:blue">puntoFinal</text><path d="M880 1490 C900 1490 880 1540 900 1540" style="fill:transparent;stroke:black" /><text x="910" y="1540" font-size="8" style="fill:black">longitud: -115.160459º</text><text x="910" y="1550" font-size="8" style="fill:black">latitud: 36.110517°</text><rect x="1120" y="1520" width="200" height="40" style="fill:white;stroke:black;stroke-width:1" /><text x="1130" y="1530" font-size="10" style="fill:blue">altitudPunto</text><path d="M1100 1540 C1120 1540 1100 1540 1120 1540" style="fill:transparent;stroke:black" /><text x="1130" y="1540" font-size="8" style="fill:black">unidad: metros</text><rect x="1186" y="1520" width="137" height="40" style="fill:green;stroke:black;stroke-width:1" /><text x="1196" y="1530" font-size="8" style="fill:white">611</text><rect x="900" y="1620" width="200" height="40" style="fill:white;stroke:black;stroke-width:1" /><text x="910" y="1630" font-size="10" style="fill:blue">numero</text><path d="M880 1490 C900 1490 880 1640 900 1640" style="fill:transparent;stroke:black" /><rect x="966" y="1620" width="137" height="40" style="fill:green;stroke:black;stroke-width:1" /><text x="976" y="1630" font-size="8" style="fill:white">3</text><rect x="680" y="1720" width="200" height="40" style="fill:white;stroke:black;stroke-width:1" /><text x="690" y="1730" font-size="10" style="fill:blue">puntos</text><path d="M660 890 C680 890 660 1740 680 1740" style="fill:transparent;stroke:black" /><rect x="900" y="1720" width="200" height="40" style="fill:white;stroke:black;stroke-width:1" /><text x="910" y="1730" font-size="10" style="fill:blue">longitudTramo</text><path d="M880 1740 C900 1740 880 1740 900 1740" style="fill:transparent;stroke:black" /><text x="910" y="1740" font-size="8" style="fill:black">unidad: metros</text><rect x="966" y="1720" width="137" height="40" style="fill:green;stroke:black;stroke-width:1" /><text x="976" y="1730" font-size="8" style="fill:white">199</text><rect x="900" y="1770" width="200" height="40" style="fill:white;stroke:black;stroke-width:1" /><text x="910" y="1780" font-size="10" style="fill:blue">puntoFinal</text><path d="M880 1740 C900 1740 880 1790 900 1790" style="fill:transparent;stroke:black" /><text x="910" y="1790" font-size="8" style="fill:black">longitud: -115.161489º</text><text x="910" y="1800" font-size="8" style="fill:black">latitud: 36.110472º</text><rect x="1120" y="1770" width="200" height="40" style="fill:white;stroke:black;stroke-width:1" /><text x="1130" y="1780" font-size="10" style="fill:blue">altitudPunto</text><path d="M1100 1790 C1120 1790 1100 1790 1120 1790" style="fill:transparent;stroke:black" /><text x="1130" y="1790" font-size="8" style="fill:black">unidad: metros</text><rect x="1186" y="1770" width="137" height="40" style="fill:green;stroke:black;stroke-width:1" /><text x="1196" y="1780" font-size="8" style="fill:white">611</text><rect x="900" y="1870" width="200" height="40" style="fill:white;stroke:black;stroke-width:1" /><text x="910" y="1880" font-size="10" style="fill:blue">numero</text><path d="M880 1740 C900 1740 880 1890 900 1890" style="fill:transparent;stroke:black" /><rect x="966" y="1870" width="137" height="40" style="fill:green;stroke:black;stroke-width:1" /><text x="976" y="1880" font-size="8" style="fill:white">4</text><rect x="680" y="1970" width="200" height="40" style="fill:white;stroke:black;stroke-width:1" /><text x="690" y="1980" font-size="10" style="fill:blue">puntos</text><path d="M660 890 C680 890 660 1990 680 1990" style="fill:transparent;stroke:black" /><rect x="900" y="1970" width="200" height="40" style="fill:white;stroke:black;stroke-width:1" /><text x="910" y="1980" font-size="10" style="fill:blue">longitudTramo</text><path d="M880 1990 C900 1990 880 1990 900 1990" style="fill:transparent;stroke:black" /><text x="910" y="1990" font-size="8" style="fill:black">unidad: metros</text><rect x="966" y="1970" width="137" height="40" style="fill:green;stroke:black;stroke-width:1" /><text x="976" y="1980" font-size="8" style="fill:white">67</text><rect x="900" y="2020" width="200" height="40" style="fill:white;stroke:black;stroke-width:1" /><text x="910" y="2030" font-size="10" style="fill:blue">puntoFinal</text><path d="M880 1990 C900 1990 880 2040 900 2040" style="fill:transparent;stroke:black" /><text x="910" y="2040" font-size="8" style="fill:black">longitud: -115.163698º</text><text x="910" y="2050" font-size="8" style="fill:black">latitud: 36.110252°</text><rect x="1120" y="2020" width="200" height="40" style="fill:white;stroke:black;stroke-width:1" /><text x="1130" y="2030" font-size="10" style="fill:blue">altitudPunto</text><path d="M1100 2040 C1120 2040 1100 2040 1120 2040" style="fill:transparent;stroke:black" /><text x="1130" y="2040" font-size="8" style="fill:black">unidad: metros</text><rect x="1186" y="2020" width="137" height="40" style="fill:green;stroke:black;stroke-width:1" /><text x="1196" y="2030" font-size="8" style="fill:white">611</text><rect x="900" y="2120" width="200" height="40" style="fill:white;stroke:black;stroke-width:1" /><text x="910" y="2130" font-size="10" style="fill:blue">numero</text><path d="M880 1990 C900 1990 880 2140 900 2140" style="fill:transparent;stroke:black" /><rect x="966" y="2120" width="137" height="40" style="fill:green;stroke:black;stroke-width:1" /><text x="976" y="2130" font-size="8" style="fill:white">5</text><rect x="680" y="2220" width="200" height="40" style="fill:white;stroke:black;stroke-width:1" /><text x="690" y="2230" font-size="10" style="fill:blue">puntos</text><path d="M660 890 C680 890 660 2240 680 2240" style="fill:transparent;stroke:black" /><rect x="900" y="2220" width="200" height="40" style="fill:white;stroke:black;stroke-width:1" /><text x="910" y="2230" font-size="10" style="fill:blue">longitudTramo</text><path d="M880 2240 C900 2240 880 2240 900 2240" style="fill:transparent;stroke:black" /><text x="910" y="2240" font-size="8" style="fill:black">unidad: metros</text><rect x="966" y="2220" width="137" height="40" style="fill:green;stroke:black;stroke-width:1" /><text x="976" y="2230" font-size="8" style="fill:white">927</text><rect x="900" y="2270" width="200" height="40" style="fill:white;stroke:black;stroke-width:1" /><text x="910" y="2280" font-size="10" style="fill:blue">puntoFinal</text><path d="M880 2240 C900 2240 880 2290 900 2290" style="fill:transparent;stroke:black" /><text x="910" y="2290" font-size="8" style="fill:black">longitud: -115.163981º</text><text x="910" y="2300" font-size="8" style="fill:black">latitud: 36.110815°</text><rect x="1120" y="2270" width="200" height="40" style="fill:white;stroke:black;stroke-width:1" /><text x="1130" y="2280" font-size="10" style="fill:blue">altitudPunto</text><path d="M1100 2290 C1120 2290 1100 2290 1120 2290" style="fill:transparent;stroke:black" /><text x="1130" y="2290" font-size="8" style="fill:black">unidad: metros</text><rect x="1186" y="2270" width="137" height="40" style="fill:green;stroke:black;stroke-width:1" /><text x="1196" y="2280" font-size="8" style="fill:white">611</text><rect x="900" y="2370" width="200" height="40" style="fill:white;stroke:black;stroke-width:1" /><text x="910" y="2380" font-size="10" style="fill:blue">numero</text><path d="M880 2240 C900 2240 880 2390 900 2390" style="fill:transparent;stroke:black" /><rect x="966" y="2370" width="137" height="40" style="fill:green;stroke:black;stroke-width:1" /><text x="976" y="2380" font-size="8" style="fill:white">6</text><rect x="680" y="2470" width="200" height="40" style="fill:white;stroke:black;stroke-width:1" /><text x="690" y="2480" font-size="10" style="fill:blue">puntos</text><path d="M660 890 C680 890 660 2490 680 2490" style="fill:transparent;stroke:black" /><rect x="900" y="2470" width="200" height="40" style="fill:white;stroke:black;stroke-width:1" /><text x="910" y="2480" font-size="10" style="fill:blue">longitudTramo</text><path d="M880 2490 C900 2490 880 2490 900 2490" style="fill:transparent;stroke:black" /><text x="910" y="2490" font-size="8" style="fill:black">unidad: metros</text><rect x="966" y="2470" width="137" height="40" style="fill:green;stroke:black;stroke-width:1" /><text x="976" y="2480" font-size="8" style="fill:white">17</text><rect x="900" y="2520" width="200" height="40" style="fill:white;stroke:black;stroke-width:1" /><text x="910" y="2530" font-size="10" style="fill:blue">puntoFinal</text><path d="M880 2490 C900 2490 880 2540 900 2540" style="fill:transparent;stroke:black" /><text x="910" y="2540" font-size="8" style="fill:black">longitud: -115.164023º</text><text x="910" y="2550" font-size="8" style="fill:black">latitud: 36.119152°</text><rect x="1120" y="2520" width="200" height="40" style="fill:white;stroke:black;stroke-width:1" /><text x="1130" y="2530" font-size="10" style="fill:blue">altitudPunto</text><path d="M1100 2540 C1120 2540 1100 2540 1120 2540" style="fill:transparent;stroke:black" /><text x="1130" y="2540" font-size="8" style="fill:black">unidad: metros</text><rect x="1186" y="2520" width="137" height="40" style="fill:green;stroke:black;stroke-width:1" /><text x="1196" y="2530" font-size="8" style="fill:white">611</text><rect x="900" y="2620" width="200" height="40" style="fill:white;stroke:black;stroke-width:1" /><text x="910" y="2630" font-size="10" style="fill:blue">numero</text><path d="M880 2490 C900 2490 880 2640 900 2640" style="fill:transparent;stroke:black" /><rect x="966" y="2620" width="137" height="40" style="fill:green;stroke:black;stroke-width:1" /><text x="976" y="2630" font-size="8" style="fill:white">7</text><rect x="680" y="2720" width="200" height="40" style="fill:white;stroke:black;stroke-width:1" /><text x="690" y="2730" font-size="10" style="fill:blue">puntos</text><path d="M660 890 C680 890 660 2740 680 2740" style="fill:transparent;stroke:black" /><rect x="900" y="2720" width="200" height="40" style="fill:white;stroke:black;stroke-width:1" /><text x="910" y="2730" font-size="10" style="fill:blue">longitudTramo</text><path d="M880 2740 C900 2740 880 2740 900 2740" style="fill:transparent;stroke:black" /><text x="910" y="2740" font-size="8" style="fill:black">unidad: metros</text><rect x="966" y="2720" width="137" height="40" style="fill:green;stroke:black;stroke-width:1" /><text x="976" y="2730" font-size="8" style="fill:white">356</text><rect x="900" y="2770" width="200" height="40" style="fill:white;stroke:black;stroke-width:1" /><text x="910" y="2780" font-size="10" style="fill:blue">puntoFinal</text><path d="M880 2740 C900 2740 880 2790 900 2790" style="fill:transparent;stroke:black" /><text x="910" y="2790" font-size="8" style="fill:black">longitud: -115.163838º</text><text x="910" y="2800" font-size="8" style="fill:black">latitud: 36.119190°</text><rect x="1120" y="2770" width="200" height="40" style="fill:white;stroke:black;stroke-width:1" /><text x="1130" y="2780" font-size="10" style="fill:blue">altitudPunto</text><path d="M1100 2790 C1120 2790 1100 2790 1120 2790" style="fill:transparent;stroke:black" /><text x="1130" y="2790" font-size="8" style="fill:black">unidad: metros</text><rect x="1186" y="2770" width="137" height="40" style="fill:green;stroke:black;stroke-width:1" /><text x="1196" y="2780" font-size="8" style="fill:white">611</text><rect x="900" y="2870" width="200" height="40" style="fill:white;stroke:black;stroke-width:1" /><text x="910" y="2880" font-size="10" style="fill:blue">numero</text><path d="M880 2740 C900 2740 880 2890 900 2890" style="fill:transparent;stroke:black" /><rect x="966" y="2870" width="137" height="40" style="fill:green;stroke:black;stroke-width:1" /><text x="976" y="2880" font-size="8" style="fill:white">8</text><rect x="680" y="2970" width="200" height="40" style="fill:white;stroke:black;stroke-width:1" /><text x="690" y="2980" font-size="10" style="fill:blue">puntos</text><path d="M660 890 C680 890 660 2990 680 2990" style="fill:transparent;stroke:black" /><rect x="900" y="2970" width="200" height="40" style="fill:white;stroke:black;stroke-width:1" /><text x="910" y="2980" font-size="10" style="fill:blue">longitudTramo</text><path d="M880 2990 C900 2990 880 2990 900 2990" style="fill:transparent;stroke:black" /><text x="910" y="2990" font-size="8" style="fill:black">unidad: metros</text><rect x="966" y="2970" width="137" height="40" style="fill:green;stroke:black;stroke-width:1" /><text x="976" y="2980" font-size="8" style="fill:white">40</text><rect x="900" y="3020" width="200" height="40" style="fill:white;stroke:black;stroke-width:1" /><text x="910" y="3030" font-size="10" style="fill:blue">puntoFinal</text><path d="M880 2990 C900 2990 880 3040 900 3040" style="fill:transparent;stroke:black" /><text x="910" y="3040" font-size="8" style="fill:black">longitud: -115.160557º</text><text x="910" y="3050" font-size="8" style="fill:black">latitud: 36.120991°</text><rect x="1120" y="3020" width="200" height="40" style="fill:white;stroke:black;stroke-width:1" /><text x="1130" y="3030" font-size="10" style="fill:blue">altitudPunto</text><path d="M1100 3040 C1120 3040 1100 3040 1120 3040" style="fill:transparent;stroke:black" /><text x="1130" y="3040" font-size="8" style="fill:black">unidad: metros</text><rect x="1186" y="3020" width="137" height="40" style="fill:green;stroke:black;stroke-width:1" /><text x="1196" y="3030" font-size="8" style="fill:white">611</text><rect x="900" y="3120" width="200" height="40" style="fill:white;stroke:black;stroke-width:1" /><text x="910" y="3130" font-size="10" style="fill:blue">numero</text><path d="M880 2990 C900 2990 880 3140 900 3140" style="fill:transparent;stroke:black" /><rect x="966" y="3120" width="137" height="40" style="fill:green;stroke:black;stroke-width:1" /><text x="976" y="3130" font-size="8" style="fill:white">9</text><rect x="680" y="3220" width="200" height="40" style="fill:white;stroke:black;stroke-width:1" /><text x="690" y="3230" font-size="10" style="fill:blue">puntos</text><path d="M660 890 C680 890 660 3240 680 3240" style="fill:transparent;stroke:black" /><rect x="900" y="3220" width="200" height="40" style="fill:white;stroke:black;stroke-width:1" /><text x="910" y="3230" font-size="10" style="fill:blue">longitudTramo</text><path d="M880 3240 C900 3240 880 3240 900 3240" style="fill:transparent;stroke:black" /><text x="910" y="3240" font-size="8" style="fill:black">unidad: metros</text><rect x="966" y="3220" width="137" height="40" style="fill:green;stroke:black;stroke-width:1" /><text x="976" y="3230" font-size="8" style="fill:white">103</text><rect x="900" y="3270" width="200" height="40" style="fill:white;stroke:black;stroke-width:1" /><text x="910" y="3280" font-size="10" style="fill:blue">puntoFinal</text><path d="M880 3240 C900 3240 880 3290 900 3290" style="fill:transparent;stroke:black" /><text x="910" y="3290" font-size="8" style="fill:black">longitud: -115.160853º</text><text x="910" y="3300" font-size="8" style="fill:black">latitud: 36.121263°</text><rect x="1120" y="3270" width="200" height="40" style="fill:white;stroke:black;stroke-width:1" /><text x="1130" y="3280" font-size="10" style="fill:blue">altitudPunto</text><path d="M1100 3290 C1120 3290 1100 3290 1120 3290" style="fill:transparent;stroke:black" /><text x="1130" y="3290" font-size="8" style="fill:black">unidad: metros</text><rect x="1186" y="3270" width="137" height="40" style="fill:green;stroke:black;stroke-width:1" /><text x="1196" y="3280" font-size="8" style="fill:white">611</text><rect x="900" y="3370" width="200" height="40" style="fill:white;stroke:black;stroke-width:1" /><text x="910" y="3380" font-size="10" style="fill:blue">numero</text><path d="M880 3240 C900 3240 880 3390 900 3390" style="fill:transparent;stroke:black" /><rect x="966" y="3370" width="137" height="40" style="fill:green;stroke:black;stroke-width:1" /><text x="976" y="3380" font-size="8" style="fill:white">10</text><rect x="680" y="3470" width="200" height="40" style="fill:white;stroke:black;stroke-width:1" /><text x="690" y="3480" font-size="10" style="fill:blue">puntos</text><path d="M660 890 C680 890 660 3490 680 3490" style="fill:transparent;stroke:black" /><rect x="900" y="3470" width="200" height="40" style="fill:white;stroke:black;stroke-width:1" /><text x="910" y="3480" font-size="10" style="fill:blue">longitudTramo</text><path d="M880 3490 C900 3490 880 3490 900 3490" style="fill:transparent;stroke:black" /><text x="910" y="3490" font-size="8" style="fill:black">unidad: metros</text><rect x="966" y="3470" width="137" height="40" style="fill:green;stroke:black;stroke-width:1" /><text x="976" y="3480" font-size="8" style="fill:white">302</text><rect x="900" y="3520" width="200" height="40" style="fill:white;stroke:black;stroke-width:1" /><text x="910" y="3530" font-size="10" style="fill:blue">puntoFinal</text><path d="M880 3490 C900 3490 880 3540 900 3540" style="fill:transparent;stroke:black" /><text x="910" y="3540" font-size="8" style="fill:black">longitud: -115.160735º</text><text x="910" y="3550" font-size="8" style="fill:black">latitud: 36.122189°</text><rect x="1120" y="3520" width="200" height="40" style="fill:white;stroke:black;stroke-width:1" /><text x="1130" y="3530" font-size="10" style="fill:blue">altitudPunto</text><path d="M1100 3540 C1120 3540 1100 3540 1120 3540" style="fill:transparent;stroke:black" /><text x="1130" y="3540" font-size="8" style="fill:black">unidad: metros</text><rect x="1186" y="3520" width="137" height="40" style="fill:green;stroke:black;stroke-width:1" /><text x="1196" y="3530" font-size="8" style="fill:white">611</text><rect x="900" y="3620" width="200" height="40" style="fill:white;stroke:black;stroke-width:1" /><text x="910" y="3630" font-size="10" style="fill:blue">numero</text><path d="M880 3490 C900 3490 880 3640 900 3640" style="fill:transparent;stroke:black" /><rect x="966" y="3620" width="137" height="40" style="fill:green;stroke:black;stroke-width:1" /><text x="976" y="3630" font-size="8" style="fill:white">11</text><rect x="680" y="3720" width="200" height="40" style="fill:white;stroke:black;stroke-width:1" /><text x="690" y="3730" font-size="10" style="fill:blue">puntos</text><path d="M660 890 C680 890 660 3740 680 3740" style="fill:transparent;stroke:black" /><rect x="900" y="3720" width="200" height="40" style="fill:white;stroke:black;stroke-width:1" /><text x="910" y="3730" font-size="10" style="fill:blue">longitudTramo</text><path d="M880 3740 C900 3740 880 3740 900 3740" style="fill:transparent;stroke:black" /><text x="910" y="3740" font-size="8" style="fill:black">unidad: metros</text><rect x="966" y="3720" width="137" height="40" style="fill:green;stroke:black;stroke-width:1" /><text x="976" y="3730" font-size="8" style="fill:white">248</text><rect x="900" y="3770" width="200" height="40" style="fill:white;stroke:black;stroke-width:1" /><text x="910" y="3780" font-size="10" style="fill:blue">puntoFinal</text><path d="M880 3740 C900 3740 880 3790 900 3790" style="fill:transparent;stroke:black" /><text x="910" y="3790" font-size="8" style="fill:black">longitud: -115.164089º</text><text x="910" y="3800" font-size="8" style="fill:black">latitud: 36.122386°</text><rect x="1120" y="3770" width="200" height="40" style="fill:white;stroke:black;stroke-width:1" /><text x="1130" y="3780" font-size="10" style="fill:blue">altitudPunto</text><path d="M1100 3790 C1120 3790 1100 3790 1120 3790" style="fill:transparent;stroke:black" /><text x="1130" y="3790" font-size="8" style="fill:black">unidad: metros</text><rect x="1186" y="3770" width="137" height="40" style="fill:green;stroke:black;stroke-width:1" /><text x="1196" y="3780" font-size="8" style="fill:white">611</text><rect x="900" y="3870" width="200" height="40" style="fill:white;stroke:black;stroke-width:1" /><text x="910" y="3880" font-size="10" style="fill:blue">numero</text><path d="M880 3740 C900 3740 880 3890 900 3890" style="fill:transparent;stroke:black" /><rect x="966" y="3870" width="137" height="40" style="fill:green;stroke:black;stroke-width:1" /><text x="976" y="3880" font-size="8" style="fill:white">12</text><rect x="680" y="3970" width="200" height="40" style="fill:white;stroke:black;stroke-width:1" /><text x="690" y="3980" font-size="10" style="fill:blue">puntos</text><path d="M660 890 C680 890 660 3990 680 3990" style="fill:transparent;stroke:black" /><rect x="900" y="3970" width="200" height="40" style="fill:white;stroke:black;stroke-width:1" /><text x="910" y="3980" font-size="10" style="fill:blue">longitudTramo</text><path d="M880 3990 C900 3990 880 3990 900 3990" style="fill:transparent;stroke:black" /><text x="910" y="3990" font-size="8" style="fill:black">unidad: metros</text><rect x="966" y="3970" width="137" height="40" style="fill:green;stroke:black;stroke-width:1" /><text x="976" y="3980" font-size="8" style="fill:white">237</text><rect x="900" y="4020" width="200" height="40" style="fill:white;stroke:black;stroke-width:1" /><text x="910" y="4030" font-size="10" style="fill:blue">puntoFinal</text><path d="M880 3990 C900 3990 880 4040 900 4040" style="fill:transparent;stroke:black" /><text x="910" y="4040" font-size="8" style="fill:black">longitud: -115.166411º</text><text x="910" y="4050" font-size="8" style="fill:black">latitud: 36.123607°</text><rect x="1120" y="4020" width="200" height="40" style="fill:white;stroke:black;stroke-width:1" /><text x="1130" y="4030" font-size="10" style="fill:blue">altitudPunto</text><path d="M1100 4040 C1120 4040 1100 4040 1120 4040" style="fill:transparent;stroke:black" /><text x="1130" y="4040" font-size="8" style="fill:black">unidad: metros</text><rect x="1186" y="4020" width="137" height="40" style="fill:green;stroke:black;stroke-width:1" /><text x="1196" y="4030" font-size="8" style="fill:white">611</text><rect x="900" y="4120" width="200" height="40" style="fill:white;stroke:black;stroke-width:1" /><text x="910" y="4130" font-size="10" style="fill:blue">numero</text><path d="M880 3990 C900 3990 880 4140 900 4140" style="fill:transparent;stroke:black" /><rect x="966" y="4120" width="137" height="40" style="fill:green;stroke:black;stroke-width:1" /><text x="976" y="4130" font-size="8" style="fill:white">13</text><rect x="680" y="4220" width="200" height="40" style="fill:white;stroke:black;stroke-width:1" /><text x="690" y="4230" font-size="10" style="fill:blue">puntos</text><path d="M660 890 C680 890 660 4240 680 4240" style="fill:transparent;stroke:black" /><rect x="900" y="4220" width="200" height="40" style="fill:white;stroke:black;stroke-width:1" /><text x="910" y="4230" font-size="10" style="fill:blue">longitudTramo</text><path d="M880 4240 C900 4240 880 4240 900 4240" style="fill:transparent;stroke:black" /><text x="910" y="4240" font-size="8" style="fill:black">unidad: metros</text><rect x="966" y="4220" width="137" height="40" style="fill:green;stroke:black;stroke-width:1" /><text x="976" y="4230" font-size="8" style="fill:white">536</text><rect x="900" y="4270" width="200" height="40" style="fill:white;stroke:black;stroke-width:1" /><text x="910" y="4280" font-size="10" style="fill:blue">puntoFinal</text><path d="M880 4240 C900 4240 880 4290 900 4290" style="fill:transparent;stroke:black" /><text x="910" y="4290" font-size="8" style="fill:black">longitud: -115.168065º</text><text x="910" y="4300" font-size="8" style="fill:black">latitud: 36.125279°</text><rect x="1120" y="4270" width="200" height="40" style="fill:white;stroke:black;stroke-width:1" /><text x="1130" y="4280" font-size="10" style="fill:blue">altitudPunto</text><path d="M1100 4290 C1120 4290 1100 4290 1120 4290" style="fill:transparent;stroke:black" /><text x="1130" y="4290" font-size="8" style="fill:black">unidad: metros</text><rect x="1186" y="4270" width="137" height="40" style="fill:green;stroke:black;stroke-width:1" /><text x="1196" y="4280" font-size="8" style="fill:white">611</text><rect x="900" y="4370" width="200" height="40" style="fill:white;stroke:black;stroke-width:1" /><text x="910" y="4380" font-size="10" style="fill:blue">numero</text><path d="M880 4240 C900 4240 880 4390 900 4390" style="fill:transparent;stroke:black" /><rect x="966" y="4370" width="137" height="40" style="fill:green;stroke:black;stroke-width:1" /><text x="976" y="4380" font-size="8" style="fill:white">14</text><rect x="680" y="4470" width="200" height="40" style="fill:white;stroke:black;stroke-width:1" /><text x="690" y="4480" font-size="10" style="fill:blue">puntos</text><path d="M660 890 C680 890 660 4490 680 4490" style="fill:transparent;stroke:black" /><rect x="900" y="4470" width="200" height="40" style="fill:white;stroke:black;stroke-width:1" /><text x="910" y="4480" font-size="10" style="fill:blue">longitudTramo</text><path d="M880 4490 C900 4490 880 4490 900 4490" style="fill:transparent;stroke:black" /><text x="910" y="4490" font-size="8" style="fill:black">unidad: metros</text><rect x="966" y="4470" width="137" height="40" style="fill:green;stroke:black;stroke-width:1" /><text x="976" y="4480" font-size="8" style="fill:white">390</text><rect x="900" y="4520" width="200" height="40" style="fill:white;stroke:black;stroke-width:1" /><text x="910" y="4530" font-size="10" style="fill:blue">puntoFinal</text><path d="M880 4490 C900 4490 880 4540 900 4540" style="fill:transparent;stroke:black" /><text x="910" y="4540" font-size="8" style="fill:black">longitud: -115.171849º</text><text x="910" y="4550" font-size="8" style="fill:black">latitud: 36.121548°</text><rect x="1120" y="4520" width="200" height="40" style="fill:white;stroke:black;stroke-width:1" /><text x="1130" y="4530" font-size="10" style="fill:blue">altitudPunto</text><path d="M1100 4540 C1120 4540 1100 4540 1120 4540" style="fill:transparent;stroke:black" /><text x="1130" y="4540" font-size="8" style="fill:black">unidad: metros</text><rect x="1186" y="4520" width="137" height="40" style="fill:green;stroke:black;stroke-width:1" /><text x="1196" y="4530" font-size="8" style="fill:white">611</text><rect x="900" y="4620" width="200" height="40" style="fill:white;stroke:black;stroke-width:1" /><text x="910" y="4630" font-size="10" style="fill:blue">numero</text><path d="M880 4490 C900 4490 880 4640 900 4640" style="fill:transparent;stroke:black" /><rect x="966" y="4620" width="137" height="40" style="fill:green;stroke:black;stroke-width:1" /><text x="976" y="4630" font-size="8" style="fill:white">15</text><rect x="680" y="4720" width="200" height="40" style="fill:white;stroke:black;stroke-width:1" /><text x="690" y="4730" font-size="10" style="fill:blue">puntos</text><path d="M660 890 C680 890 660 4740 680 4740" style="fill:transparent;stroke:black" /><rect x="900" y="4720" width="200" height="40" style="fill:white;stroke:black;stroke-width:1" /><text x="910" y="4730" font-size="10" style="fill:blue">longitudTramo</text><path d="M880 4740 C900 4740 880 4740 900 4740" style="fill:transparent;stroke:black" /><text x="910" y="4740" font-size="8" style="fill:black">unidad: metros</text><rect x="966" y="4720" width="137" height="40" style="fill:green;stroke:black;stroke-width:1" /><text x="976" y="4730" font-size="8" style="fill:white">382</text><rect x="900" y="4770" width="200" height="40" style="fill:white;stroke:black;stroke-width:1" /><text x="910" y="4780" font-size="10" style="fill:blue">puntoFinal</text><path d="M880 4740 C900 4740 880 4790 900 4790" style="fill:transparent;stroke:black" /><text x="910" y="4790" font-size="8" style="fill:black">longitud: -115.172890º</text><text x="910" y="4800" font-size="8" style="fill:black">latitud: 36.117356°</text><rect x="1120" y="4770" width="200" height="40" style="fill:white;stroke:black;stroke-width:1" /><text x="1130" y="4780" font-size="10" style="fill:blue">altitudPunto</text><path d="M1100 4790 C1120 4790 1100 4790 1120 4790" style="fill:transparent;stroke:black" /><text x="1130" y="4790" font-size="8" style="fill:black">unidad: metros</text><rect x="1186" y="4770" width="137" height="40" style="fill:green;stroke:black;stroke-width:1" /><text x="1196" y="4780" font-size="8" style="fill:white">611</text><rect x="900" y="4870" width="200" height="40" style="fill:white;stroke:black;stroke-width:1" /><text x="910" y="4880" font-size="10" style="fill:blue">numero</text><path d="M880 4740 C900 4740 880 4890 900 4890" style="fill:transparent;stroke:black" /><rect x="966" y="4870" width="137" height="40" style="fill:green;stroke:black;stroke-width:1" /><text x="976" y="4880" font-size="8" style="fill:white">16</text><rect x="680" y="4970" width="200" height="40" style="fill:white;stroke:black;stroke-width:1" /><text x="690" y="4980" font-size="10" style="fill:blue">puntos</text><path d="M660 890 C680 890 660 4990 680 4990" style="fill:transparent;stroke:black" /><rect x="900" y="4970" width="200" height="40" style="fill:white;stroke:black;stroke-width:1" /><text x="910" y="4980" font-size="10" style="fill:blue">longitudTramo</text><path d="M880 4990 C900 4990 880 4990 900 4990" style="fill:transparent;stroke:black" /><text x="910" y="4990" font-size="8" style="fill:black">unidad: metros</text><rect x="966" y="4970" width="137" height="40" style="fill:green;stroke:black;stroke-width:1" /><text x="976" y="4980" font-size="8" style="fill:white">694</text><rect x="900" y="5020" width="200" height="40" style="fill:white;stroke:black;stroke-width:1" /><text x="910" y="5030" font-size="10" style="fill:blue">puntoFinal</text><path d="M880 4990 C900 4990 880 5040 900 5040" style="fill:transparent;stroke:black" /><text x="910" y="5040" font-size="8" style="fill:black">longitud: -115.173015º</text><text x="910" y="5050" font-size="8" style="fill:black">latitud: 36.108714°</text><rect x="1120" y="5020" width="200" height="40" style="fill:white;stroke:black;stroke-width:1" /><text x="1130" y="5030" font-size="10" style="fill:blue">altitudPunto</text><path d="M1100 5040 C1120 5040 1100 5040 1120 5040" style="fill:transparent;stroke:black" /><text x="1130" y="5040" font-size="8" style="fill:black">unidad: metros</text><rect x="1186" y="5020" width="137" height="40" style="fill:green;stroke:black;stroke-width:1" /><text x="1196" y="5030" font-size="8" style="fill:white">611</text><rect x="900" y="5120" width="200" height="40" style="fill:white;stroke:black;stroke-width:1" /><text x="910" y="5130" font-size="10" style="fill:blue">numero</text><path d="M880 4990 C900 4990 880 5140 900 5140" style="fill:transparent;stroke:black" /><rect x="966" y="5120" width="137" height="40" style="fill:green;stroke:black;stroke-width:1" /><text x="976" y="5130" font-size="8" style="fill:white">17</text><rect x="680" y="5220" width="200" height="40" style="fill:white;stroke:black;stroke-width:1" /><text x="690" y="5230" font-size="10" style="fill:blue">puntos</text><path d="M660 890 C680 890 660 5240 680 5240" style="fill:transparent;stroke:black" /><rect x="900" y="5220" width="200" height="40" style="fill:white;stroke:black;stroke-width:1" /><text x="910" y="5230" font-size="10" style="fill:blue">longitudTramo</text><path d="M880 5240 C900 5240 880 5240 900 5240" style="fill:transparent;stroke:black" /><text x="910" y="5240" font-size="8" style="fill:black">unidad: metros</text><rect x="966" y="5220" width="137" height="40" style="fill:green;stroke:black;stroke-width:1" /><text x="976" y="5230" font-size="8" style="fill:white">74</text><rect x="900" y="5270" width="200" height="40" style="fill:white;stroke:black;stroke-width:1" /><text x="910" y="5280" font-size="10" style="fill:blue">puntoFinal</text><path d="M880 5240 C900 5240 880 5290 900 5290" style="fill:transparent;stroke:black" /><text x="910" y="5290" font-size="8" style="fill:black">longitud: -115.172383º</text><text x="910" y="5300" font-size="8" style="fill:black">latitud: 36.108448°</text><rect x="1120" y="5270" width="200" height="40" style="fill:white;stroke:black;stroke-width:1" /><text x="1130" y="5280" font-size="10" style="fill:blue">altitudPunto</text><path d="M1100 5290 C1120 5290 1100 5290 1120 5290" style="fill:transparent;stroke:black" /><text x="1130" y="5290" font-size="8" style="fill:black">unidad: metros</text><rect x="1186" y="5270" width="137" height="40" style="fill:green;stroke:black;stroke-width:1" /><text x="1196" y="5280" font-size="8" style="fill:white">611</text><rect x="900" y="5370" width="200" height="40" style="fill:white;stroke:black;stroke-width:1" /><text x="910" y="5380" font-size="10" style="fill:blue">numero</text><path d="M880 5240 C900 5240 880 5390 900 5390" style="fill:transparent;stroke:black" /><rect x="966" y="5370" width="137" height="40" style="fill:green;stroke:black;stroke-width:1" /><text x="976" y="5380" font-size="8" style="fill:white">18</text><rect x="680" y="5470" width="200" height="40" style="fill:white;stroke:black;stroke-width:1" /><text x="690" y="5480" font-size="10" style="fill:blue">puntos</text><path d="M660 890 C680 890 660 5490 680 5490" style="fill:transparent;stroke:black" /><rect x="900" y="5470" width="200" height="40" style="fill:white;stroke:black;stroke-width:1" /><text x="910" y="5480" font-size="10" style="fill:blue">longitudTramo</text><path d="M880 5490 C900 5490 880 5490 900 5490" style="fill:transparent;stroke:black" /><text x="910" y="5490" font-size="8" style="fill:black">unidad: metros</text><rect x="966" y="5470" width="137" height="40" style="fill:green;stroke:black;stroke-width:1" /><text x="976" y="5480" font-size="8" style="fill:white">800</text><rect x="900" y="5520" width="200" height="40" style="fill:white;stroke:black;stroke-width:1" /><text x="910" y="5530" font-size="10" style="fill:blue">puntoFinal</text><path d="M880 5490 C900 5490 880 5540 900 5540" style="fill:transparent;stroke:black" /><text x="910" y="5540" font-size="8" style="fill:black">longitud: -115.171730º</text><text x="910" y="5550" font-size="8" style="fill:black">latitud: 36.108038°</text><rect x="1120" y="5520" width="200" height="40" style="fill:white;stroke:black;stroke-width:1" /><text x="1130" y="5530" font-size="10" style="fill:blue">altitudPunto</text><path d="M1100 5540 C1120 5540 1100 5540 1120 5540" style="fill:transparent;stroke:black" /><text x="1130" y="5540" font-size="8" style="fill:black">unidad: metros</text><rect x="1186" y="5520" width="137" height="40" style="fill:green;stroke:black;stroke-width:1" /><text x="1196" y="5530" font-size="8" style="fill:white">611</text><rect x="900" y="5620" width="200" height="40" style="fill:white;stroke:black;stroke-width:1" /><text x="910" y="5630" font-size="10" style="fill:blue">numero</text><path d="M880 5490 C900 5490 880 5640 900 5640" style="fill:transparent;stroke:black" /><rect x="966" y="5620" width="137" height="40" style="fill:green;stroke:black;stroke-width:1" /><text x="976" y="5630" font-size="8" style="fill:white">19</text></svg>