<?xml version="1.0" encoding="utf-8"?><svg width="auto" height="1970" style="overflow:visible " version="1.1" xmlns="http://www.w3.org/2000/svg"><rect x="20" y="20" width="200" height="40" style="fill:white;stroke:black;stroke-width:1" /><text x="30" y="30" font-size="10" style="fill:blue">circuitos</text><rect x="240" y="20" width="200" height="40" style="fill:white;stroke:black;stroke-width:1" /><text x="250" y="30" font-size="10" style="fill:blue">circuito</text><path d="M220 40 C240 40 220 40 240 40" style="fill:transparent;stroke:black" /><text x="250" y="40" font-size="8" style="fill:black">nombre: Las Vegas Strip Circuit</text><text x="250" y="50" font-size="8" style="fill:black">longitud: 6201m</text><text x="250" y="60" font-size="8" style="fill:black">anchura: </text><rect x="460" y="20" width="200" height="40" style="fill:white;stroke:black;stroke-width:1" /><text x="470" y="30" font-size="10" style="fill:blue">fecha</text><path d="M440 40 C460 40 440 40 460 40" style="fill:transparent;stroke:black" /><rect x="526" y="20" width="137" height="40" style="fill:green;stroke:black;stroke-width:1" /><text x="536" y="30" font-size="8" style="fill:white">23 de noviembre</text><rect x="460" y="70" width="200" height="40" style="fill:white;stroke:black;stroke-width:1" /><text x="470" y="80" font-size="10" style="fill:blue">vueltas</text><path d="M440 40 C460 40 440 90 460 90" style="fill:transparent;stroke:black" /><rect x="526" y="70" width="137" height="40" style="fill:green;stroke:black;stroke-width:1" /><text x="536" y="80" font-size="8" style="fill:white">50</text><rect x="460" y="120" width="200" height="40" style="fill:white;stroke:black;stroke-width:1" /><text x="470" y="130" font-size="10" style="fill:blue">localidad</text><path d="M440 40 C460 40 440 140 460 140" style="fill:transparent;stroke:black" /><rect x="526" y="120" width="137" height="40" style="fill:green;stroke:black;stroke-width:1" /><text x="536" y="130" font-size="8" style="fill:white">Las Vegas</text><rect x="460" y="170" width="200" height="40" style="fill:white;stroke:black;stroke-width:1" /><text x="470" y="180" font-size="10" style="fill:blue">pais</text><path d="M440 40 C460 40 440 190 460 190" style="fill:transparent;stroke:black" /><rect x="526" y="170" width="137" height="40" style="fill:green;stroke:black;stroke-width:1" /><text x="536" y="180" font-size="8" style="fill:white">Estados Unidos</text><rect x="460" y="220" width="200" height="40" style="fill:white;stroke:black;stroke-width:1" /><text x="470" y="230" font-size="10" style="fill:blue">bibliografia</text><path d="M440 40 C460 40 440 240 460 240" style="fill:transparent;stroke:black" /><rect x="680" y="220" width="200" height="40" style="fill:white;stroke:black;stroke-width:1" /><text x="690" y="230" font-size="10" style="fill:blue">url</text><path d="M660 240 C680 240 660 240 680 240" style="fill:transparent;stroke:black" /><rect x="746" y="220" width="137" height="40" style="fill:green;stroke:black;stroke-width:1" /><text x="756" y="230" font-size="8" style="fill:white">https://www.formula1.com/en/racing/2024/las-vegas/circuit</text><rect x="680" y="270" width="200" height="40" style="fill:white;stroke:black;stroke-width:1" /><text x="690" y="280" font-size="10" style="fill:blue">url</text><path d="M660 240 C680 240 660 290 680 290" style="fill:transparent;stroke:black" /><rect x="746" y="270" width="137" height="40" style="fill:green;stroke:black;stroke-width:1" /><text x="756" y="280" font-size="8" style="fill:white">https://www.mclaren.com/racing/formula-1/2024/las-vegas-grand-prix/</text><rect x="680" y="320" width="200" height="40" style="fill:white;stroke:black;stroke-width:1" /><text x="690" y="330" font-size="10" style="fill:blue">url</text><path d="M660 240 C680 240 660 340 680 340" style="fill:transparent;stroke:black" /><rect x="746" y="320" width="137" height="40" style="fill:green;stroke:black;stroke-width:1" /><text x="756" y="330" font-size="8" style="fill:white">https://www.redbull.com/es-es/circuito-las-vegas-f1-guia</text><rect x="460" y="420" width="200" height="40" style="fill:white;stroke:black;stroke-width:1" /><text x="470" y="430" font-size="10" style="fill:blue">multimedia</text><path d="M440 40 C460 40 440 440 460 440" style="fill:transparent;stroke:black" /><rect x="680" y="420" width="200" height="40" style="fill:white;stroke:black;stroke-width:1" /><text x="690" y="430" font-size="10" style="fill:blue">imagenes</text><path d="M660 440 C680 440 660 440 680 440" style="fill:transparent;stroke:black" /><rect x="900" y="420" width="200" height="40" style="fill:white;stroke:black;stroke-width:1" /><text x="910" y="430" font-size="10" style="fill:blue">imagen</text><path d="M880 440 C900 440 880 440 900 440" style="fill:transparent;stroke:black" /><rect x="966" y="420" width="137" height="40" style="fill:green;stroke:black;stroke-width:1" /><text x="976" y="430" font-size="8" style="fill:white">LayoutTrack.wepm</text><rect x="900" y="470" width="200" height="40" style="fill:white;stroke:black;stroke-width:1" /><text x="910" y="480" font-size="10" style="fill:blue">imagen</text><path d="M880 440 C900 440 880 490 900 490" style="fill:transparent;stroke:black" /><rect x="966" y="470" width="137" height="40" style="fill:green;stroke:black;stroke-width:1" /><text x="976" y="480" font-size="8" style="fill:white">Panoramica.jpg</text><rect x="900" y="520" width="200" height="40" style="fill:white;stroke:black;stroke-width:1" /><text x="910" y="530" font-size="10" style="fill:blue">imagen</text><path d="M880 440 C900 440 880 540 900 540" style="fill:transparent;stroke:black" /><rect x="966" y="520" width="137" height="40" style="fill:green;stroke:black;stroke-width:1" /><text x="976" y="530" font-size="8" style="fill:white">Salida.jpg</text><rect x="680" y="620" width="200" height="40" style="fill:white;stroke:black;stroke-width:1" /><text x="690" y="630" font-size="10" style="fill:blue">videos</text><path d="M660 440 C680 440 660 640 680 640" style="fill:transparent;stroke:black" /><rect x="900" y="620" width="200" height="40" style="fill:white;stroke:black;stroke-width:1" /><text x="910" y="630" font-size="10" style="fill:blue">video</text><path d="M880 640 C900 640 880 640 900 640" style="fill:transparent;stroke:black" /><rect x="966" y="620" width="137" height="40" style="fill:green;stroke:black;stroke-width:1" /><text x="976" y="630" font-size="8" style="fill:white">RaceHighLight.mp4</text><rect x="460" y="770" width="200" height="40" style="fill:white;stroke:black;stroke-width:1" /><text x="470" y="780" font-size="10" style="fill:blue">coordenadas</text><path d="M440 40 C460 40 440 790 460 790" style="fill:transparent;stroke:black" /><rect x="680" y="770" width="200" height="40" style="fill:white;stroke:black;stroke-width:1" /><text x="690" y="780" font-size="10" style="fill:blue">centro</text><path d="M660 790 C680 790 660 790 680 790" style="fill:transparent;stroke:black" /><text x="690" y="790" font-size="8" style="fill:black">longitud: -115.176468º</text><text x="690" y="800" font-size="8" style="fill:black">latitud: 36.188110°</text><text x="690" y="810" font-size="8" style="fill:black">altitud: 611m</text><rect x="680" y="820" width="200" height="40" style="fill:white;stroke:black;stroke-width:1" /><text x="690" y="830" font-size="10" style="fill:blue">puntos</text><path d="M660 790 C680 790 660 840 680 840" style="fill:transparent;stroke:black" /><rect x="900" y="820" width="200" height="40" style="fill:white;stroke:black;stroke-width:1" /><text x="910" y="830" font-size="10" style="fill:blue">longitudTramo</text><path d="M880 840 C900 840 880 840 900 840" style="fill:transparent;stroke:black" /><rect x="966" y="820" width="137" height="40" style="fill:green;stroke:black;stroke-width:1" /><text x="976" y="830" font-size="8" style="fill:white">800m</text><rect x="900" y="870" width="200" height="40" style="fill:white;stroke:black;stroke-width:1" /><text x="910" y="880" font-size="10" style="fill:blue">puntoFinal</text><path d="M880 840 C900 840 880 890 900 890" style="fill:transparent;stroke:black" /><text x="910" y="890" font-size="8" style="fill:black">longitud: -115.176458º</text><text x="910" y="900" font-size="8" style="fill:black">latitud: 36.188100°</text><text x="910" y="910" font-size="8" style="fill:black">altitud: 611m</text><rect x="900" y="920" width="200" height="40" style="fill:white;stroke:black;stroke-width:1" /><text x="910" y="930" font-size="10" style="fill:blue">numero</text><path d="M880 840 C900 840 880 940 900 940" style="fill:transparent;stroke:black" /><rect x="966" y="920" width="137" height="40" style="fill:green;stroke:black;stroke-width:1" /><text x="976" y="930" font-size="8" style="fill:white">4</text><rect x="680" y="1020" width="200" height="40" style="fill:white;stroke:black;stroke-width:1" /><text x="690" y="1030" font-size="10" style="fill:blue">puntos</text><path d="M660 790 C680 790 660 1040 680 1040" style="fill:transparent;stroke:black" /><rect x="900" y="1020" width="200" height="40" style="fill:white;stroke:black;stroke-width:1" /><text x="910" y="1030" font-size="10" style="fill:blue">longitudTramo</text><path d="M880 1040 C900 1040 880 1040 900 1040" style="fill:transparent;stroke:black" /><rect x="966" y="1020" width="137" height="40" style="fill:green;stroke:black;stroke-width:1" /><text x="976" y="1030" font-size="8" style="fill:white">800m</text><rect x="900" y="1070" width="200" height="40" style="fill:white;stroke:black;stroke-width:1" /><text x="910" y="1080" font-size="10" style="fill:blue">puntoFinal</text><path d="M880 1040 C900 1040 880 1090 900 1090" style="fill:transparent;stroke:black" /><text x="910" y="1090" font-size="8" style="fill:black">longitud: -115.176458º</text><text x="910" y="1100" font-size="8" style="fill:black">latitud: 36.188100°</text><text x="910" y="1110" font-size="8" style="fill:black">altitud: 611m</text><rect x="900" y="1120" width="200" height="40" style="fill:white;stroke:black;stroke-width:1" /><text x="910" y="1130" font-size="10" style="fill:blue">numero</text><path d="M880 1040 C900 1040 880 1140 900 1140" style="fill:transparent;stroke:black" /><rect x="966" y="1120" width="137" height="40" style="fill:green;stroke:black;stroke-width:1" /><text x="976" y="1130" font-size="8" style="fill:white">4</text><rect x="680" y="1220" width="200" height="40" style="fill:white;stroke:black;stroke-width:1" /><text x="690" y="1230" font-size="10" style="fill:blue">puntos</text><path d="M660 790 C680 790 660 1240 680 1240" style="fill:transparent;stroke:black" /><rect x="900" y="1220" width="200" height="40" style="fill:white;stroke:black;stroke-width:1" /><text x="910" y="1230" font-size="10" style="fill:blue">longitudTramo</text><path d="M880 1240 C900 1240 880 1240 900 1240" style="fill:transparent;stroke:black" /><rect x="966" y="1220" width="137" height="40" style="fill:green;stroke:black;stroke-width:1" /><text x="976" y="1230" font-size="8" style="fill:white">800m</text><rect x="900" y="1270" width="200" height="40" style="fill:white;stroke:black;stroke-width:1" /><text x="910" y="1280" font-size="10" style="fill:blue">puntoFinal</text><path d="M880 1240 C900 1240 880 1290 900 1290" style="fill:transparent;stroke:black" /><text x="910" y="1290" font-size="8" style="fill:black">longitud: -115.176458º</text><text x="910" y="1300" font-size="8" style="fill:black">latitud: 36.188100°</text><text x="910" y="1310" font-size="8" style="fill:black">altitud: 611m</text><rect x="900" y="1320" width="200" height="40" style="fill:white;stroke:black;stroke-width:1" /><text x="910" y="1330" font-size="10" style="fill:blue">numero</text><path d="M880 1240 C900 1240 880 1340 900 1340" style="fill:transparent;stroke:black" /><rect x="966" y="1320" width="137" height="40" style="fill:green;stroke:black;stroke-width:1" /><text x="976" y="1330" font-size="8" style="fill:white">4</text><rect x="680" y="1420" width="200" height="40" style="fill:white;stroke:black;stroke-width:1" /><text x="690" y="1430" font-size="10" style="fill:blue">puntos</text><path d="M660 790 C680 790 660 1440 680 1440" style="fill:transparent;stroke:black" /><rect x="900" y="1420" width="200" height="40" style="fill:white;stroke:black;stroke-width:1" /><text x="910" y="1430" font-size="10" style="fill:blue">longitudTramo</text><path d="M880 1440 C900 1440 880 1440 900 1440" style="fill:transparent;stroke:black" /><rect x="966" y="1420" width="137" height="40" style="fill:green;stroke:black;stroke-width:1" /><text x="976" y="1430" font-size="8" style="fill:white">800m</text><rect x="900" y="1470" width="200" height="40" style="fill:white;stroke:black;stroke-width:1" /><text x="910" y="1480" font-size="10" style="fill:blue">puntoFinal</text><path d="M880 1440 C900 1440 880 1490 900 1490" style="fill:transparent;stroke:black" /><text x="910" y="1490" font-size="8" style="fill:black">longitud: -115.176458º</text><text x="910" y="1500" font-size="8" style="fill:black">latitud: 36.188100°</text><text x="910" y="1510" font-size="8" style="fill:black">altitud: 611m</text><rect x="900" y="1520" width="200" height="40" style="fill:white;stroke:black;stroke-width:1" /><text x="910" y="1530" font-size="10" style="fill:blue">numero</text><path d="M880 1440 C900 1440 880 1540 900 1540" style="fill:transparent;stroke:black" /><rect x="966" y="1520" width="137" height="40" style="fill:green;stroke:black;stroke-width:1" /><text x="976" y="1530" font-size="8" style="fill:white">4</text><rect x="680" y="1620" width="200" height="40" style="fill:white;stroke:black;stroke-width:1" /><text x="690" y="1630" font-size="10" style="fill:blue">puntos</text><path d="M660 790 C680 790 660 1640 680 1640" style="fill:transparent;stroke:black" /><rect x="900" y="1620" width="200" height="40" style="fill:white;stroke:black;stroke-width:1" /><text x="910" y="1630" font-size="10" style="fill:blue">longitudTramo</text><path d="M880 1640 C900 1640 880 1640 900 1640" style="fill:transparent;stroke:black" /><rect x="966" y="1620" width="137" height="40" style="fill:green;stroke:black;stroke-width:1" /><text x="976" y="1630" font-size="8" style="fill:white">800m</text><rect x="900" y="1670" width="200" height="40" style="fill:white;stroke:black;stroke-width:1" /><text x="910" y="1680" font-size="10" style="fill:blue">puntoFinal</text><path d="M880 1640 C900 1640 880 1690 900 1690" style="fill:transparent;stroke:black" /><text x="910" y="1690" font-size="8" style="fill:black">longitud: -115.176458º</text><text x="910" y="1700" font-size="8" style="fill:black">latitud: 36.188100°</text><text x="910" y="1710" font-size="8" style="fill:black">altitud: 611m</text><rect x="900" y="1720" width="200" height="40" style="fill:white;stroke:black;stroke-width:1" /><text x="910" y="1730" font-size="10" style="fill:blue">numero</text><path d="M880 1640 C900 1640 880 1740 900 1740" style="fill:transparent;stroke:black" /><rect x="966" y="1720" width="137" height="40" style="fill:green;stroke:black;stroke-width:1" /><text x="976" y="1730" font-size="8" style="fill:white">4</text></svg>