<?xml version="1.0" encoding="UTF-8" standalone="no"?>
<svg viewBox="0 0 300.00001 98.510331" version="1.1" id="svg54" sodipodi:docname="image (1).svg" inkscape:version="1.1 (c68e22c387, 2021-05-23)" width="300" height="98.51033" xmlns:inkscape="http://www.inkscape.org/namespaces/inkscape" xmlns:sodipodi="http://sodipodi.sourceforge.net/DTD/sodipodi-0.dtd" xmlns="http://www.w3.org/2000/svg" xmlns:svg="http://www.w3.org/2000/svg">
  <defs id="defs58"/>
  <sodipodi:namedview id="namedview56" pagecolor="#a73d3d" bordercolor="#666666" borderopacity="1.0" inkscape:pageshadow="2" inkscape:pageopacity="0" inkscape:pagecheckerboard="false" showgrid="false" inkscape:zoom="1.7420094" inkscape:cx="38.174306" inkscape:cy="35.878107" inkscape:window-width="1920" inkscape:window-height="1017" inkscape:window-x="-8" inkscape:window-y="-8" inkscape:window-maximized="1" inkscape:current-layer="svg54"/>
  <path d="m 152.8894,49.043852 c 0,12.834215 0.0891,32.673198 0.5833,49.466478 h 0.10827 c 0.49423,-16.789787 0.58853,-37.50895 0.58853,-50.296013 0,-4.730969 -0.014,-28.728105 -0.58853,-48.214317 h -0.10827 c -0.39469,13.408777 -0.5833,30.83425 -0.5833,49.043852 z" fill="#fff" id="path2" style="fill:#d0db25;fill-opacity:1.0;stroke-width:0.174639"/>
  <path d="M 65.723616,42.391855 C 48.671871,42.391855 22.31187,42.479174 0,42.973402 v 0.110023 c 22.310124,0.494228 49.836713,0.588533 66.836066,0.588533 6.287002,0 38.169084,-0.01572 64.061054,-0.588533 V 42.973402 C 113.06998,42.578718 89.918094,42.391855 65.723616,42.391855" fill="#fff" id="path4" style="fill:#d0db25;fill-opacity:1.0;stroke-width:0.174639"/>
  <path d="M 123.66358,5.5535181 H 75.257156 c -0.873195,0 -2.095667,-0.015718 -3.393235,1.2801034 -1.222472,1.2224725 -0.859223,2.4449451 -2.885035,2.4449451 h -7.062398 c -2.024066,0 -1.653831,-1.2102478 -2.883289,-2.4449451 C 57.735632,5.5378006 56.513159,5.5535181 55.639964,5.5535181 H 7.2317983 c -1.6590699,0 -2.3838215,1.4739526 -1.5944535,2.7942229 l 0.8731947,1.4564888 c 0.4662859,0.7998462 1.0827614,0.9238402 1.5333298,1.0129062 0.4173871,0.08383 0.6671207,0.134472 0.9902028,0.698555 l 0.7684113,1.351706 c 0.5920256,1.096732 1.3045526,1.225965 1.8267236,1.323763 0.419133,0.08033 0.79286,0.113515 1.308045,1.047833 0.557098,1.014653 1.309792,2.296502 3.075392,2.822166 l 18.083861,5.274095 c 1.880862,0.60949 2.361119,1.297568 2.916471,2.095668 0.2899,0.417387 1.187544,1.921028 3.623758,2.582909 l 17.196695,4.647142 c 1.613664,0.434851 2.741832,-0.174638 3.524214,-0.873194 l 3.119051,-2.953145 c 0.801593,-0.757933 1.142139,-0.757933 1.941985,0 l 3.119052,2.953145 c 0.784129,0.698556 1.91055,1.309792 3.524213,0.873194 L 90.25864,28.013831 c 2.444945,-0.656642 3.333858,-2.165522 3.625505,-2.582909 0.555351,-0.7981 1.033862,-1.486178 2.914723,-2.095668 l 18.085612,-5.274095 c 1.7656,-0.523917 2.51829,-1.807513 3.07539,-2.822166 0.51518,-0.936064 0.88891,-0.969246 1.30804,-1.047833 0.52392,-0.0978 1.2347,-0.234016 1.82673,-1.332495 l 0.76841,-1.351706 c 0.32133,-0.564083 0.57281,-0.614729 0.98845,-0.698555 0.45057,-0.08907 1.06705,-0.21306 1.53508,-1.0129062 l 0.8732,-1.4564887 c 0.78936,-1.3115384 0.0646,-2.785491 -1.5962,-2.785491 M 7.2562477,8.5503222 6.7323309,7.6771275 C 6.5734095,7.4134227 6.4721189,6.8266359 7.2213199,6.8266359 H 55.639964 c 0.976232,0 2.078204,-0.012225 3.143501,1.838948 a 6.2625522,6.2625522 0 0 0 0.509946,0.7911144 H 10.228602 c -1.9961227,0 -2.3820747,0.010478 -2.9688615,-0.9046297 M 38.659821,10.439915 h 53.575732 v 8.394894 H 38.659821 Z M 11.096558,12.509387 C 10.644243,12.055326 10.347357,11.112275 9.9369553,10.555177 L 37.704546,10.439915 v 1.222473 l -23.501161,1.36393 c -1.817992,0.120501 -2.570686,0.01746 -3.106827,-0.523917 m 3.635982,3.208118 a 7.858752,7.858752 0 0 1 -0.677599,-1.075776 4.9702241,4.9702241 0 0 0 -0.307364,-0.495975 c 0.338799,-0.01921 0.401669,-0.02794 1.028623,-0.06636 L 37.695814,12.65783 v 1.306299 l -18.108311,1.936746 c -2.444945,0.260212 -4.102269,0.626954 -4.854963,-0.199088 m 6.204922,2.467648 -3.29893,-0.960514 c 2.196958,-0.263705 20.053789,-2.256335 20.053789,-2.256335 v 1.456488 l -11.613489,1.863398 c -1.334241,0.216552 -2.953144,0.482003 -5.144863,-0.09954 m 8.056094,2.341909 -3.667418,-1.070537 c 0.349278,-0.04715 0.555352,-0.08383 0.941304,-0.148443 l 11.445836,-1.907057 v 1.57175 l -4.311835,1.222473 c -0.03667,0.01048 -2.685947,0.805085 -4.402648,0.335306 m 5.466199,1.594454 -2.113131,-0.616476 a 13.380835,13.380835 0 0 0 1.332495,-0.324828 l 4.680323,-1.369169 h 5.239168 l -4.842737,2.254588 c -1.543809,0.602505 -2.914724,0.42088 -4.290879,0.05588 m 4.809556,3.901434 c -0.58504,-0.399924 -0.887166,-0.834774 -1.222472,-1.3063 a 6.5122858,6.5122858 0 0 0 -1.016399,-1.222472 6.5437209,6.5437209 0 0 0 1.140392,-0.174639 16.58022,16.58022 0 0 0 1.826724,-0.688077 l 5.824208,-2.830898 h 3.875238 l -7.616004,5.408568 c -1.171827,0.75968 -2.104399,1.047834 -2.811687,0.810325 m 5.75086,1.868636 -3.730287,-1.007666 a 8.2569288,8.2569288 0 0 0 1.397111,-0.750948 c 0.387699,-0.253226 -0.05938,0.06462 8.787831,-6.321929 h 3.241299 l -5.969159,6.112363 c -1.047833,1.075775 -2.20045,2.270306 -3.719809,1.975166 m 5.892318,1.592707 -3.510243,-0.950036 c 0.96226,-0.558844 1.809259,-1.496655 2.139327,-1.838948 l 6.636279,-6.884266 h 2.916471 l -5.293306,8.251689 c -0.873195,1.316778 -1.868637,1.601439 -2.895514,1.414576 m 6.157769,1.662562 -3.737273,-1.009413 a 4.6715915,4.6715915 0 0 0 1.46522,-1.529837 l 5.541294,-8.796563 h 2.511308 c 0,0 -3.253524,9.533539 -3.480554,10.013796 -0.647911,1.397112 -1.397112,1.503642 -2.299995,1.322017 m 13.314472,-0.296886 -3.094602,-2.930441 c -1.297567,-1.222473 -2.401285,-1.222473 -3.697106,0 l -3.094602,2.930441 a 3.0753916,3.0753916 0 0 1 -0.714273,0.487243 c 0.572816,-0.698556 0.906376,-1.70273 1.122928,-2.357626 l 3.06666,-9.168544 h 2.933934 l 3.06666,9.168544 c 0.225284,0.675853 0.557098,1.657323 1.124674,2.357626 a 3.0753916,3.0753916 0 0 1 -0.714273,-0.487243 m 3.426416,0.296886 c -0.906376,0.174639 -1.650338,0.0751 -2.299995,-1.322017 -0.225284,-0.483749 -3.478807,-10.013796 -3.478807,-10.013796 h 2.5148 l 5.541294,8.796563 a 4.6523812,4.6523812 0 0 0 1.46522,1.529837 z m 6.166501,-1.662562 c -1.028624,0.186863 -2.024065,-0.0978 -2.89726,-1.414576 l -5.293306,-8.258675 h 2.918216 l 6.63628,6.884267 c 0.330067,0.349278 1.177066,1.280103 2.139327,1.838948 z m 5.890571,-1.592708 c -1.517612,0.29514 -2.668483,-0.89939 -3.718063,-1.975166 L 76.187981,19.79183 h 3.241299 c 0,0 8.400133,6.068703 8.787831,6.32193 a 8.2569288,8.2569288 0 0 0 1.397112,0.750947 z m 6.968093,-3.174935 c -0.328321,0.471525 -0.630446,0.906376 -1.222472,1.306299 -0.698556,0.230523 -1.63986,-0.05065 -2.811687,-0.810325 -0.33356,-0.214806 -7.624736,-5.401582 -7.624736,-5.401582 h 3.876985 c 0,0 4.481235,2.210929 5.822462,2.830897 0.747454,0.349278 1.714954,0.792861 2.968862,0.855731 a 6.4459231,6.4459231 0 0 0 -1.016399,1.222472 m 3.611533,-2.595134 c -1.377901,0.366742 -2.74707,0.54662 -4.290879,-0.05588 -0.557098,-0.214806 -4.842737,-2.254588 -4.842737,-2.254588 h 5.239168 l 4.680323,1.369169 a 13.525785,13.525785 0 0 0 1.332495,0.324828 l -2.113131,0.616476 m 5.467947,-1.594454 c -1.7167,0.469779 -4.402649,-0.335306 -4.402649,-0.335306 l -4.313582,-1.222473 v -1.57175 l 11.445831,1.907057 c 0.38596,0.06462 0.60251,0.10129 0.94131,0.148443 l -3.66742,1.070537 m 8.04387,-2.345401 c -2.19172,0.581547 -3.81237,0.316096 -5.14661,0.09954 L 93.19956,16.409074 v -1.456488 l 20.05554,2.256335 -3.29544,0.960514 m 6.87379,-3.543424 a 8.0211662,8.0211662 0 0 1 -0.66887,1.084508 c -0.75269,0.826042 -2.41875,0.4593 -4.85671,0.199088 L 93.19956,13.964129 v -1.313285 l 22.91961,1.414576 c 0.6287,0.03842 0.69856,0.04715 1.02863,0.06636 a 5.7141859,5.7141859 0 0 0 -0.31435,0.494228 m 2.61958,-1.957703 c -0.88542,0.56583 -1.88959,0.40167 -4.87417,0.228777 L 93.208292,11.657149 v -1.222473 l 27.757108,0.120501 c -0.56757,0.796354 -0.72824,1.610171 -1.51237,2.107892 m 4.71525,-4.9859415 -0.52391,0.8731947 c -0.59203,0.9168544 -0.97973,0.9063761 -2.96887,0.9046297 H 71.601963 a 6.0739421,6.0739421 0 0 0 0.509946,-0.7911144 c 1.061804,-1.8511727 2.163776,-1.838948 3.1435,-1.838948 h 48.422141 c 0.7492,0 0.64791,0.5867869 0.48724,0.8504916 M 69.485339,17.154782 c -0.123994,-1.514119 -0.211313,-2.40827 -0.279422,-3.016014 a 31.581705,31.581705 0 0 0 -1.493163,2.944413 H 67.386179 C 66.572362,15.422364 66.47631,15.232008 66.24404,14.797157 66.16895,14.655699 66.069402,14.48106 65.915719,14.170203 c -0.06811,0.599012 -0.192103,1.777824 -0.279422,2.984579 h -0.845252 c 0.241001,-1.746389 0.625207,-4.715251 0.656642,-4.961492 h 0.508199 c 0,0 1.19977,2.396047 1.723686,3.29893 0.607744,-1.11245 1.002428,-1.908804 1.78481,-3.29893 h 0.459301 c 0.08208,0.714274 0.349278,2.986326 0.592026,4.961492 z M 84.787202,12.19329 h -0.98671 v 4.961492 h 0.98671 z m -2.951398,4.961492 v -4.228008 a 11.657149,11.657149 0 0 1 1.475699,0.104783 V 12.19329 h -3.999231 v 0.834774 a 14.252283,14.252283 0 0 1 1.543808,-0.10129 v 4.228008 z m -30.982693,0 v -4.228008 a 11.629207,11.629207 0 0 1 1.475699,0.104783 V 12.19329 h -3.999231 v 0.834774 a 14.285465,14.285465 0 0 1 1.543808,-0.10129 v 4.228008 z m 11.480764,0 V 12.19329 h -0.773651 v 3.202878 L 58.601841,12.19329 h -0.550113 v 4.961492 h 0.77889 v -3.354813 l 3.003789,3.354813 z M 45.058591,15.757671 v 1.107211 a 2.3052339,2.3052339 0 0 0 1.351706,0.417387 c 1.06879,0 2.017079,-0.600758 2.017079,-1.624142 a 1.3394806,1.3394806 0 0 0 -0.846998,-1.26264 c -0.621715,-0.282915 -1.026877,-0.349278 -1.30106,-0.579801 -0.490736,-0.413894 -0.09256,-1.075776 0.576308,-1.075776 0.202581,0 0.698556,0.05414 0.838267,0.550113 h 0.366742 V 12.3819 a 2.9880722,2.9880722 0 0 0 -1.239937,-0.312603 1.8214841,1.8214841 0 0 0 -1.091493,0.349278 c -0.757933,0.553605 -0.9675,1.67828 0.10653,2.324444 0.67236,0.403416 1.594453,0.349278 1.617156,1.091493 0.01572,0.54662 -0.506453,0.749201 -0.895898,0.749201 -0.777143,0 -1.021637,-0.686331 -1.086254,-0.824296 z m -0.0262,1.397111 -2.174255,-5.064529 h -0.412148 l -2.254589,5.064529 h 0.930826 a 14.119558,14.119558 0 0 1 0.482003,-1.397111 h 1.7656 c 0.221791,0.543127 0.392937,1.03037 0.523917,1.397111 z m -3.15398,-2.046768 c 0.108277,-0.249733 0.12574,-0.29514 0.611237,-1.440771 0.475018,1.091493 0.511692,1.168334 0.619968,1.440771 z m 15.530641,-0.434851 c 0,-1.746389 -1.302807,-2.647526 -2.575925,-2.647526 -1.273117,0 -2.575924,0.890659 -2.575924,2.647526 0,1.756868 1.302807,2.649273 2.579417,2.649273 1.276611,0 2.575925,-0.892405 2.575925,-2.649273 M 54.83662,16.66754 c -0.784129,0 -1.48967,-0.736976 -1.48967,-1.994377 0,-1.308045 0.749201,-1.994376 1.48967,-1.994376 0.740469,0 1.48967,0.686331 1.48967,1.994376 0,1.308046 -0.750947,1.994377 -1.48967,1.994377 z m 20.956672,0.487242 h 0.977978 v -2.045021 h 0.244495 l 1.657323,2.043275 h 1.222473 l -1.868637,-2.179494 a 1.8546655,1.8546655 0 0 0 0.658389,-0.410401 1.372662,1.372662 0 0 0 0,-1.948971 c -0.289901,-0.288154 -0.623461,-0.455807 -1.472206,-0.455807 0,0 -1.135153,0.01048 -1.4268,0.03144 z m 0.974486,-4.365973 a 2.5951346,2.5951346 0 0 1 0.337053,-0.02445 c 1.007666,0 1.039101,0.752693 1.039101,0.852238 0,0.523916 -0.462793,0.995442 -1.376154,0.838267 z m -1.222473,4.365973 -2.174255,-5.064529 h -0.412148 l -2.254588,5.064529 h 0.930825 a 14.119558,14.119558 0 0 1 0.482004,-1.397111 h 1.755121 c 0.221792,0.543127 0.392938,1.03037 0.523917,1.397111 z m -3.164457,-2.046768 c 0.108276,-0.249733 0.127486,-0.29514 0.612982,-1.440771 0.473272,1.091493 0.511692,1.168334 0.618222,1.440771 z m 17.690924,2.046768 V 12.19329 H 89.29638 v 3.202878 L 86.339743,12.19329 h -0.551859 v 4.961492 h 0.780636 v -3.354813 l 3.002043,3.354813 z" fill="#fff" id="path6" style="fill:#01574e;fill-opacity:1;stroke-width:0.174639"/>
  <path d="m 56.396151,84.912942 h -0.616475 l -3.75823,8.436807 h 1.435532 a 23.532596,23.532596 0 0 1 0.819056,-2.355879 h 3.06666 c 0.375474,0.915108 0.665374,1.74639 0.885419,2.355879 h 1.793542 z m -0.581548,2.444946 c 0.909869,2.095667 0.922094,2.095667 1.135153,2.652765 H 54.67945 c 0.239256,-0.553605 0.242748,-0.56583 1.126421,-2.652765" fill="#fff" id="path8" style="fill:#01574e;fill-opacity:1;stroke-width:0.174639"/>
  <path d="m 113.67423,84.912942 h -0.61822 l -3.75823,8.436807 h 1.43728 a 23.069803,23.069803 0 0 1 0.81905,-2.355879 h 3.06666 c 0.37373,0.915108 0.66363,1.74639 0.88542,2.355879 h 1.7918 z m -0.5833,2.444946 c 0.90987,2.095667 0.9221,2.095667 1.1369,2.652765 h -2.2703 c 0.23751,-0.553605 0.241,-0.56583 1.12467,-2.652765" fill="#fff" id="path10" style="fill:#01574e;fill-opacity:1;stroke-width:0.174639"/>
  <path d="m 34.836975,93.349749 c -0.216553,-2.619584 -0.371981,-4.191334 -0.488989,-5.239168 -1.416322,2.549729 -2.032798,3.794904 -2.605613,5.111682 h -0.482004 c -1.432039,-2.925202 -1.582229,-3.209864 -1.912296,-3.829832 -0.143204,-0.268944 -0.302125,-0.567576 -0.647911,-1.236444 -0.06112,0.523917 -0.319589,2.832644 -0.490735,5.188523 h -1.292328 c 0.410401,-2.968862 1.058312,-7.977506 1.094986,-8.267407 h 0.766665 c 0.117008,0.23227 0.230523,0.457554 0.338799,0.677599 0.94829,1.893086 1.695745,3.387995 2.603867,4.940536 l 0.01222,0.02096 0.01397,-0.0227 c 0.408655,-0.749201 0.780636,-1.449503 1.140392,-2.127102 0.555352,-1.047834 1.13166,-2.134088 1.894832,-3.492779 h 0.689824 c 0.02969,0.261959 0.497721,4.346763 0.983217,8.267407 z" fill="#fff" id="path12" style="fill:#01574e;fill-opacity:1;stroke-width:0.174639"/>
  <path d="m 125.79941,93.349749 c -0.21481,-2.619584 -0.37023,-4.191334 -0.48724,-5.239168 -1.41632,2.549729 -2.0328,3.794904 -2.60562,5.111682 h -0.47501 c -1.43204,-2.925202 -1.58223,-3.209864 -1.9123,-3.829832 -0.1432,-0.268944 -0.30213,-0.567576 -0.64791,-1.236444 -0.0611,0.523917 -0.32134,2.832644 -0.49074,5.188523 h -1.29931 c 0.4104,-2.968862 1.05831,-7.977506 1.09499,-8.267407 h 0.76666 l 0.3388,0.677599 c 0.94829,1.893086 1.69575,3.387995 2.60387,4.940536 l 0.0122,0.02096 0.0122,-0.0227 c 0.4104,-0.749201 0.78238,-1.449503 1.14214,-2.127102 0.55535,-1.047834 1.13166,-2.134088 1.89483,-3.492779 h 0.69157 c 0.0314,0.261959 0.49947,4.346763 0.98496,8.267407 z" fill="#fff" id="path14" style="fill:#01574e;fill-opacity:1;stroke-width:0.174639"/>
  <path d="m 13.75107,93.632664 a 4.2908786,4.2908786 0 0 1 -2.986326,-1.15087 c -0.698556,-0.663628 -1.3097921,-1.727179 -1.3097921,-3.265748 0,-1.538569 0.6094901,-2.603867 1.3097921,-3.265748 a 4.2908786,4.2908786 0 0 1 2.986326,-1.150871 c 1.047833,0 3.059674,0.436598 3.936361,2.535758 a 4.844484,4.844484 0 0 1 0.349278,1.880861 c 0,1.540315 -0.60949,2.603866 -1.309792,3.265748 a 4.2891322,4.2891322 0 0 1 -2.984579,1.15087 m 0,-0.984963 c 1.280103,0 2.57767,-1.178813 2.57767,-3.431655 0,-2.252842 -1.297567,-3.431655 -2.57767,-3.431655 -1.276611,0 -2.565446,1.178813 -2.565446,3.431655 0,2.252842 1.297567,3.431655 2.579417,3.431655 z" fill="#fff" id="path16" style="fill:#01574e;fill-opacity:1;stroke-width:0.174639"/>
  <path d="m 68.369396,93.632664 a 4.2891322,4.2891322 0 0 1 -2.984579,-1.15087 c -0.698556,-0.663628 -1.309792,-1.727179 -1.309792,-3.265748 0,-1.538569 0.607743,-2.603867 1.309792,-3.265748 a 4.2856394,4.2856394 0 0 1 2.984579,-1.150871 c 1.047834,0 3.061421,0.436598 3.938108,2.535758 a 4.844484,4.844484 0 0 1 0.349278,1.880861 c 0,1.540315 -0.607743,2.603866 -1.308046,3.265748 a 4.2908786,4.2908786 0 0 1 -2.986325,1.15087 m 0,-0.984963 c 1.281849,0 2.579417,-1.178813 2.579417,-3.431655 0,-2.252842 -1.297568,-3.431655 -2.579417,-3.431655 -1.280104,0 -2.577671,1.178813 -2.577671,3.431655 0,2.252842 1.297567,3.431655 2.577671,3.431655 z" fill="#fff" id="path18" style="fill:#01574e;fill-opacity:1;stroke-width:0.174639"/>
  <path d="m 19.514154,85.071864 c 0.450569,-0.02794 2.33143,-0.04715 2.350641,-0.04715 1.414575,0 1.96818,0.27593 2.444945,0.754441 a 2.2214072,2.2214072 0 0 1 0.665374,1.648591 2.3122195,2.3122195 0 0 1 -0.668867,1.557779 3.2046244,3.2046244 0 0 1 -1.171827,0.710781 l 3.108573,3.6517 h -1.893086 l -2.794223,-3.450865 h -0.506453 v 3.456104 h -1.53333 z m 2.155045,0.859223 a 4.3188208,4.3188208 0 0 0 -0.614729,0.04715 h -0.01222 v 2.923456 h 0.01048 a 3.5573951,3.5573951 0 0 0 0.630447,0.06112 c 1.239936,0 1.80402,-0.794607 1.80402,-1.531583 A 1.5001484,1.5001484 0 0 0 23.06981,86.409592 c -0.316096,-0.317843 -0.787621,-0.478511 -1.397111,-0.478511" fill="#fff" id="path20" style="fill:#01574e;fill-opacity:1;stroke-width:0.174639"/>
  <path fill="#fff" d="m 46.750843,93.348003 v -8.269154 h 1.533329 v 7.174168 h 3.417684 l -0.0017,1.094986 z" id="path22" style="fill:#01574e;fill-opacity:1;stroke-width:0.174639"/>
  <path fill="#fff" d="M 89.483243,85.407171 H 88.85105 v -0.328322 h 1.678281 v 0.328322 h -0.640925 v 1.824977 h -0.405163 z" id="path24" style="fill:#01574e;fill-opacity:1;stroke-width:0.174639"/>
  <path d="m 92.71581,86.353714 c -0.01223,-0.277676 -0.02969,-0.612983 -0.0262,-0.90463 h -0.01048 c -0.0716,0.261958 -0.164161,0.553605 -0.261959,0.824296 l -0.323082,0.932572 h -0.326574 l -0.296887,-0.920347 c -0.08557,-0.274184 -0.16416,-0.567577 -0.223537,-0.836521 -0.0087,0.281169 -0.0227,0.623461 -0.03842,0.916854 l -0.05065,0.873195 h -0.378967 l 0.148443,-2.153298 h 0.537888 l 0.289901,0.873195 c 0.08033,0.25148 0.148443,0.508199 0.204327,0.747454 h 0.01048 c 0.05938,-0.234016 0.134472,-0.499467 0.220045,-0.750947 l 0.307364,-0.862716 h 0.536142 l 0.127486,2.153298 h -0.394684 z" fill="#fff" id="path26" style="fill:#01574e;fill-opacity:1;stroke-width:0.174639"/>
  <path d="m 80.508549,93.349749 c -0.349278,-0.44009 -2.811687,-3.157472 -5.167566,-5.763084 v 5.763084 h -1.196277 v -8.267407 h 0.845252 l 5.085486,5.509859 v -5.509859 h 1.189291 v 8.267407 z" fill="#fff" id="path28" style="fill:#01574e;fill-opacity:1;stroke-width:0.174639"/>
  <path d="m 98.585425,93.349749 v -7.147971 a 23.953476,23.953476 0 0 0 -2.609106,0.16416 v -1.283596 h 6.636281 v 1.288836 a 19.446045,19.446045 0 0 0 -2.49559,-0.174639 v 7.146225 z" fill="#fff" id="path30" style="fill:#01574e;fill-opacity:1;stroke-width:0.174639"/>
  <path d="m 84.647491,92.25127 v -2.668482 h 2.951398 v -1.005921 h -2.951398 v -2.444945 c 0.698556,0 1.685266,0 3.367039,0.103037 v -1.166588 h -4.902115 v 8.267407 h 5.038333 v -1.203262 c -1.110703,0.06462 -2.392553,0.118754 -3.503257,0.118754" fill="#fff" id="path32" style="fill:#01574e;fill-opacity:1;stroke-width:0.174639"/>
  <path d="m 105.2252,92.25127 v -2.668482 h 2.95314 v -1.005921 h -2.95314 v -2.444945 c 0.69855,0 1.68526,0 3.36878,0.103037 v -1.166588 h -4.90211 v 8.267407 h 5.03833 v -1.203262 c -1.11245,0.06462 -2.3943,0.118754 -3.505,0.118754" fill="#fff" id="path34" style="fill:#01574e;fill-opacity:1;stroke-width:0.174639"/>
  <path d="m 43.561936,85.078849 c 0.05588,3.178429 0.02969,4.435829 0.02969,4.435829 0,1.032117 -0.06287,2.893768 -2.062485,2.893768 -0.707288,0 -2.12361,-0.117009 -2.12361,-2.472888 0,-2.135834 0.05239,-4.760657 0.05414,-4.856709 H 37.84775 v 4.849724 c 0,3.389741 2.731353,3.532945 3.410698,3.532945 1.955956,0 3.492779,-0.890658 3.527707,-3.597562 l 0.01048,-4.785107 z" fill="#fff" id="path36" style="fill:#01574e;fill-opacity:1;stroke-width:0.174639"/>
  <path d="M 8.4996769,86.264648 V 85.085835 H 3.4700756 v 8.269154 H 5.0051518 V 89.795847 H 8.1207104 V 88.709593 H 5.0051518 v -2.565446 c 1.5438082,0 2.4449451,0.04366 3.4927787,0.113515" fill="#fff" id="path38" style="fill:#01574e;fill-opacity:1;stroke-width:0.174639"/>
  <path d="m 130.45528,52.346274 a 1.6258885,1.6258885 0 1 1 -1.62938,-1.625888 1.6311276,1.6311276 0 0 1 1.62938,1.625888 m -0.22004,0 a 1.3971115,1.3971115 0 1 0 -1.39711,1.412829 1.4145754,1.4145754 0 0 0 1.39711,-1.412829 m -1.1107,0.139711 0.49073,0.75444 h -0.38246 l -0.44184,-0.717766 h -0.25671 v 0.717766 h -0.31086 v -1.797034 h 0.6776 a 0.54661986,0.54661986 0 0 1 0.55535,0.537888 0.50470652,0.50470652 0 0 1 -0.3388,0.504706 m -0.58329,-0.234016 h 0.33356 a 0.2619584,0.2619584 0 0 0 0.27243,-0.258466 0.25671923,0.25671923 0 0 0 -0.27243,-0.25148 h -0.33356 z m -59.027964,3.747752 h 2.444945 v 14.66967 h -2.444945 z m -8.948499,-0.326575 a 6.7026423,6.7026423 0 0 0 -4.278654,1.535076 v -1.208501 h -2.444945 v 14.66967 h 2.444945 v -8.276139 a 4.278654,4.278654 0 1 1 8.557308,0 v 8.269153 h 2.444945 v -8.267407 a 6.7218526,6.7218526 0 0 0 -6.721853,-6.721852 m -11.60825,0.323082 h 2.444945 v 14.110826 c 0,4.226262 -3.691867,7.652678 -7.652678,7.652678 -3.6517,0 -6.332408,-2.228393 -7.287683,-5.305531 h 2.619584 c 0.810325,1.69749 2.396047,2.860586 4.661114,2.860586 2.607359,0 5.207733,-2.33143 5.207733,-5.207733 v -1.18056 a 7.6509317,7.6509317 0 1 1 0,-11.211819 z m 0,7.334835 a 5.207733,5.207733 0 1 0 -5.207733,5.207733 5.207733,5.207733 0 0 0 5.207733,-5.207733 M 11.122754,58.116344 a 5.2129722,5.2129722 0 0 1 4.715251,3.00379 h 2.607359 a 7.6526781,7.6526781 0 1 0 0,4.409633 h -2.60212 a 5.2094794,5.2094794 0 1 1 -4.715251,-7.413423 m 23.78233,5.207733 a 7.6526781,7.6526781 0 1 1 -7.650932,-7.650931 7.6509317,7.6509317 0 0 1 7.650932,7.650931 m -2.444945,0 a 5.207733,5.207733 0 1 0 -5.205987,5.207733 5.207733,5.207733 0 0 0 5.205987,-5.207733 m 79.951452,-7.650931 a 6.6939103,6.6939103 0 0 0 -4.27691,1.535076 v -1.206755 h -2.44494 v 14.66967 h 2.44494 v -8.277885 a 4.278655,4.278655 0 1 1 8.55731,0 v 8.269153 h 2.44494 v -8.267407 a 6.7218526,6.7218526 0 0 0 -6.72185,-6.721852 m -11.61,0.331814 h 2.44495 v 14.659192 h -2.44495 v -1.732418 a 7.6509317,7.6509317 0 1 1 -5.207728,-13.258588 7.629975,7.629975 0 0 1 5.207728,2.045022 z m 0,7.320864 a 5.207733,5.207733 0 1 0 -5.207728,5.207733 5.207733,5.207733 0 0 0 5.207728,-5.207733 m 26.50321,-4.88989 v -2.444945 h -3.66916 v -3.999232 h -2.44495 v 13.775519 a 4.8898902,4.8898902 0 0 0 4.88989,4.88989 h 1.22247 v -2.444945 h -1.22247 a 2.4449451,2.4449451 0 0 1 -2.44494,-2.444945 V 58.432441 Z M 70.728768,50.709907 a 1.6241421,1.6241421 0 1 0 1.624142,1.624142 1.6223957,1.6223957 0 0 0 -1.624142,-1.624142 m 15.906114,5.29156 H 74.410157 v 2.444945 h 9.067253 l -9.053282,9.77978 v 2.444945 h 12.224725 v -2.444945 h -9.068999 l 9.051536,-9.77978 z" fill="#fff" id="path40" style="fill:#01574e;fill-opacity:1;stroke-width:0.174639"/>
  <path d="M 290.09623,39.40029 A 9.9544192,9.9544192 0 1 0 300,49.354709 9.9823615,9.9823615 0 0 0 290.09623,39.40029 m 0,15.390929 a 5.4015822,5.4015822 0 1 1 0,-10.801418 5.3753864,5.3753864 0 0 1 5.37189,5.371894 c 0,2.968862 -2.40652,5.429524 -5.37189,5.429524" fill="#fff" id="path42" style="fill:#01574e;fill-opacity:1;stroke-width:0.174639"/>
  <path d="m 253.61939,39.178498 a 17.065717,17.065717 0 0 0 -6.21365,1.17532 c -1.45474,-0.840013 -2.85535,-1.17532 -4.87068,-1.17532 a 23.981418,23.981418 0 0 0 -7.88844,1.285343 l -0.50471,0.174639 v 18.295175 h 4.97896 V 43.933917 a 8.1626238,8.1626238 0 0 1 2.79422,-0.448822 c 2.46066,0 3.18891,0.785875 3.18891,3.358306 v 12.090254 h 5.03484 v -12.42556 c 0,-1.11769 -0.0559,-1.84768 -0.22005,-2.518294 1.00592,-0.33356 1.79005,-0.504706 2.68246,-0.504706 2.35413,0 3.41593,1.065297 3.41593,3.358306 v 12.090254 h 4.98245 V 46.446971 c 0,-2.462409 -0.39293,-3.915405 -1.51237,-5.150102 -1.2347,-1.342974 -3.30417,-2.12361 -5.87485,-2.12361" fill="#fff" id="path44" style="fill:#01574e;fill-opacity:1;stroke-width:0.174639"/>
  <path d="m 273.58062,54.990308 c -3.31814,0 -5.2217,-2.058993 -5.2217,-5.658302 0,-3.686628 1.92103,-5.799759 5.2706,-5.799759 a 5.8242084,5.8242084 0 0 1 3.77569,1.241683 l 2.10615,-3.615026 a 8.033391,8.033391 0 0 0 -2.95838,-1.48967 c -1.29408,-0.389445 -3.19066,-0.448822 -3.19066,-0.448822 -5.99011,0 -10.00506,4.156406 -10.00506,10.329893 0,5.937724 3.81062,9.769302 9.72215,9.769302 0,0 3.95732,0.174639 6.61532,-2.289517 l -2.48162,-3.185414 c -1.34646,0.857477 -2.2703,1.145632 -3.63249,1.145632" fill="#fff" id="path46" style="fill:#01574e;fill-opacity:1;stroke-width:0.174639"/>
  <path d="m 208.65161,39.346152 c -7.11129,0 -10.41022,3.133022 -10.41022,9.793751 v 9.793752 h 5.09072 v -9.849636 c 0,-3.358307 1.90531,-5.427778 4.87068,-5.427778 a 11.23103,11.23103 0 0 1 2.8536,0.391191 l 1.17532,-4.420111 a 27.524842,27.524842 0 0 0 -3.5801,-0.281169" fill="#fff" id="path48" style="fill:#01574e;fill-opacity:1;stroke-width:0.174639"/>
  <path d="m 231.23243,48.581059 v 10.352596 h -6.8214 c -4.70128,0 -6.77075,-0.337053 -9.23316,-1.959449 -2.12885,-1.456489 -3.30417,-4.191335 -3.30417,-7.780165 0,-4.924818 3.24479,-9.90552 10.40848,-9.90552 5.82072,0 8.95549,3.248284 8.95549,9.292538 m -4.98245,0.557098 c 0,-3.751244 -1.45474,-5.588446 -4.36598,-5.588446 -2.96886,0 -4.86893,2.182987 -4.86893,5.481916 0,3.974782 1.90007,5.71244 6.15428,5.71244 h 3.07713 z" fill="#fff" id="path50" style="fill:#01574e;fill-opacity:1;stroke-width:0.174639"/>
  <path d="m 195.47161,48.579312 v 10.354343 h -6.7725 c -4.69953,0 -6.77424,-0.337053 -9.23316,-1.959449 -2.1271,-1.456489 -3.30242,-4.191335 -3.30242,-7.780165 0,-4.924818 3.24479,-9.90552 10.40848,-9.90552 5.81897,0 8.90659,3.248284 8.90659,9.290791 m -5.1501,0.558845 c 0,-3.805383 -1.34298,-5.588446 -4.30835,-5.588446 -2.96537,0 -4.86893,2.182987 -4.86893,5.481916 0,3.974782 1.90356,5.71244 6.15428,5.71244 h 3.023 z" fill="#fff" id="path52" style="fill:#01574e;fill-opacity:1;stroke-width:0.174639"/>
</svg>